<svg xmlns="http://www.w3.org/2000/svg" version="1.1" xmlns:xlink="http://www.w3.org/1999/xlink" xmlns:svgjs="http://svgjs.com/svgjs" width="320" height="500" preserveAspectRatio="none" viewBox="0 0 320 500"><g mask="url(&quot;#SvgjsMask1082&quot;)" fill="none"><rect width="320" height="500" x="0" y="0" fill="rgba(94, 208, 255, 1)"></rect><path d="M-64.58 349.6 a103.13 103.13 0 1 0 206.26 0 a103.13 103.13 0 1 0 -206.26 0z" fill="rgba(255, 255, 255, 0.81)" class="triangle-float1"></path><path d="M86.84 405.9 a68.71 68.71 0 1 0 137.42 0 a68.71 68.71 0 1 0 -137.42 0z" fill="rgba(255, 255, 255, 0.81)" class="triangle-float2"></path><path d="M139.86 169.42 a99.05 99.05 0 1 0 198.1 0 a99.05 99.05 0 1 0 -198.1 0z" fill="rgba(255, 255, 255, 0.81)" class="triangle-float3"></path><path d="M-18.26 24.2 a72.35 72.35 0 1 0 144.7 0 a72.35 72.35 0 1 0 -144.7 0z" fill="rgba(255, 255, 255, 0.81)" class="triangle-float1"></path></g><defs><mask id="SvgjsMask1082"><rect width="320" height="500" fill="#ffffff"></rect></mask><style>
            @keyframes float1 {
                0%{transform: translate(0, 0)}
                50%{transform: translate(-10px, 0)}
                100%{transform: translate(0, 0)}
            }

            .triangle-float1 {
                animation: float1 5s infinite;
            }

            @keyframes float2 {
                0%{transform: translate(0, 0)}
                50%{transform: translate(-5px, -5px)}
                100%{transform: translate(0, 0)}
            }

            .triangle-float2 {
                animation: float2 4s infinite;
            }

            @keyframes float3 {
                0%{transform: translate(0, 0)}
                50%{transform: translate(0, -10px)}
                100%{transform: translate(0, 0)}
            }

            .triangle-float3 {
                animation: float3 6s infinite;
            }
        </style></defs></svg>