<?xml version="1.0" standalone="no"?>
<!DOCTYPE svg PUBLIC "-//W3C//DTD SVG 20010904//EN"
 "http://www.w3.org/TR/2001/REC-SVG-20010904/DTD/svg10.dtd">
<svg version="1.0" xmlns="http://www.w3.org/2000/svg"
 width="687.000000pt" height="643.000000pt" viewBox="0 0 687.000000 643.000000"
 preserveAspectRatio="xMidYMid meet">

<g transform="translate(0.000000,643.000000) scale(0.100000,-0.100000)"
fill="#000000" stroke="none">
<path d="M2917 5629 c-12 -33 -15 -55 -9 -61 6 -6 16 9 28 41 16 45 21 51 46
51 15 0 28 5 28 10 0 6 -17 10 -38 10 -36 0 -38 -2 -55 -51z"/>
<path d="M3025 5668 c-9 -26 -23 -98 -18 -98 2 0 9 14 15 30 6 20 16 30 27 28
18 -3 67 27 54 35 -24 14 -73 18 -78 5z m45 -18 c0 -5 -7 -10 -15 -10 -8 0
-15 5 -15 10 0 6 7 10 15 10 8 0 15 -4 15 -10z"/>
<path d="M3279 5675 c-1 -3 -2 -10 -3 -17 -1 -9 -25 -12 -78 -13 -45 0 -78 -4
-77 -10 0 -5 13 -9 29 -7 34 4 41 -13 10 -21 -11 -3 -20 -11 -20 -17 0 -7 6
-10 14 -7 8 3 17 1 20 -6 2 -7 5 -5 5 5 1 25 29 48 58 48 22 0 25 -3 21 -30
-3 -16 -1 -30 3 -30 4 0 10 14 14 30 9 42 36 40 30 -2 l-5 -33 15 33 c12 26
21 32 46 32 20 0 28 4 23 11 -4 7 -23 9 -50 5 -26 -3 -44 -2 -44 4 0 6 7 10
16 10 8 0 12 5 9 10 -6 10 -34 14 -36 5z"/>
<path d="M3442 5636 c-18 -24 -32 -49 -32 -55 0 -22 17 -10 49 34 18 25 39 45
47 45 8 0 12 5 9 10 -13 22 -43 8 -73 -34z"/>
<path d="M3706 5663 c-5 -16 -17 -18 -86 -16 -78 3 -81 2 -90 -23 -13 -32 -13
-54 -1 -54 5 0 12 14 16 30 6 27 10 30 46 30 38 0 38 -1 28 -26 -5 -15 -7 -29
-4 -32 3 -3 5 0 5 7 0 6 10 16 23 21 12 5 16 9 10 9 -28 2 -11 21 18 21 29 0
30 -1 24 -32 -9 -44 9 -26 25 25 6 20 16 37 21 37 5 0 9 5 9 10 0 17 -38 11
-44 -7z"/>
<path d="M3750 5639 c0 -5 7 -9 15 -9 8 0 15 -8 15 -17 1 -17 1 -17 14 0 11
15 27 17 92 15 61 -2 79 -6 79 -18 0 -8 -11 -17 -25 -21 -14 -4 -20 -7 -13 -8
6 -1 18 -4 26 -7 11 -4 17 4 22 25 5 24 12 31 31 31 13 0 24 4 24 9 0 6 -61
10 -140 9 -79 0 -140 -4 -140 -9z"/>
<path d="M2970 5629 c0 -5 5 -7 10 -4 6 3 10 8 10 11 0 2 -4 4 -10 4 -5 0 -10
-5 -10 -11z"/>
<path d="M3480 5610 c0 -5 5 -10 10 -10 6 0 10 5 10 10 0 6 -4 10 -10 10 -5 0
-10 -4 -10 -10z"/>
<path d="M3740 5603 c0 -12 -10 -29 -22 -37 -17 -12 -20 -18 -10 -28 8 -8 12
-8 12 -1 0 6 9 13 20 16 21 5 26 32 10 57 -8 12 -10 11 -10 -7z"/>
<path d="M3811 5598 c-17 -28 -8 -32 19 -10 18 15 20 20 8 24 -8 4 -20 -2 -27
-14z"/>
<path d="M3873 5600 c-21 -17 -21 -18 -4 -23 14 -3 21 2 25 16 7 28 5 29 -21
7z"/>
<path d="M3050 5588 c0 -19 2 -20 10 -8 13 19 13 30 0 30 -5 0 -10 -10 -10
-22z"/>
<path d="M3094 5599 c-3 -6 -2 -15 4 -21 6 -6 11 -2 15 11 5 22 -7 29 -19 10z"/>
<path d="M3217 5603 c-10 -9 -9 -23 2 -23 5 0 11 7 15 15 5 15 -5 20 -17 8z"/>
<path d="M3347 5604 c-4 -4 -7 -14 -7 -23 0 -11 3 -12 11 -4 6 6 10 16 7 23
-2 6 -7 8 -11 4z"/>
<path d="M3577 5604 c-4 -4 -7 -17 -7 -28 1 -19 1 -20 11 -3 11 19 8 43 -4 31z"/>
<path d="M2955 5590 c-3 -5 -2 -10 4 -10 5 0 13 5 16 10 3 6 2 10 -4 10 -5 0
-13 -4 -16 -10z"/>
<path d="M1090 5510 c-161 -21 -255 -118 -280 -286 -13 -95 -13 -4293 0 -4389
20 -134 83 -221 196 -266 l59 -24 2365 0 2365 0 59 24 c113 45 176 132 196
266 13 96 13 4294 0 4390 -20 134 -83 221 -196 266 l-59 24 -2325 1 c-1279 1
-2350 -2 -2380 -6z m4878 -102 c17 -17 17 -4679 0 -4696 -17 -17 -4959 -17
-4976 0 -17 17 -17 4679 0 4696 17 17 4959 17 4976 0z"/>
<path d="M1291 4993 c1 -27 4 -38 6 -26 2 13 13 24 26 26 l22 4 -22 2 c-13 0
-23 7 -23 15 0 8 10 17 23 19 19 4 18 4 -5 6 -27 1 -28 -1 -27 -46z"/>
<path d="M1362 5008 c-21 -21 -14 -35 18 -30 17 2 30 8 30 12 0 4 -11 5 -25 2
-31 -6 -33 6 -2 18 13 5 16 9 7 9 -9 1 -21 -4 -28 -11z"/>
<path d="M1438 5013 c6 -2 18 -2 25 0 6 3 1 5 -13 5 -14 0 -19 -2 -12 -5z"/>
<path d="M1498 5013 c7 -3 16 -2 19 1 4 3 -2 6 -13 5 -11 0 -14 -3 -6 -6z"/>
<path d="M1581 4993 c-1 -24 -6 -33 -23 -36 l-23 -4 23 -2 c25 -1 36 16 29 51
-3 18 -5 16 -6 -9z"/>
<path d="M1614 5006 c-3 -8 -4 -25 -1 -38 3 -18 5 -16 6 9 1 21 7 33 19 36 16
4 16 5 -1 6 -10 0 -20 -5 -23 -13z"/>
<path d="M1667 5013 c-3 -5 5 -8 18 -8 13 0 21 3 18 8 -2 4 -10 7 -18 7 -8 0
-16 -3 -18 -7z"/>
<path d="M1425 4980 c-3 -5 -3 -14 0 -20 8 -12 32 -13 39 -1 4 5 -3 7 -14 4
-11 -3 -20 -1 -20 5 0 6 10 13 23 15 22 4 22 4 0 6 -12 0 -25 -3 -28 -9z"/>
<path d="M1662 4973 c2 -11 13 -19 28 -20 22 -1 22 -1 3 4 -13 2 -23 8 -23 13
0 5 10 11 23 13 18 4 17 5 -6 6 -22 1 -28 -3 -25 -16z"/>
<path d="M1373 4953 c9 -2 23 -2 30 0 6 3 -1 5 -18 5 -16 0 -22 -2 -12 -5z"/>
<path d="M1206 4851 c-29 -32 -27 -154 3 -184 l22 -22 727 0 c465 0 734 4 747
10 14 7 -218 12 -725 15 l-745 5 -5 99 c-5 97 -5 98 -24 77z"/>
<path d="M1280 4790 c0 -49 1 -50 30 -50 23 0 33 6 40 25 15 40 -3 75 -40 75
-29 0 -30 -1 -30 -50z m55 0 c0 -29 -4 -36 -22 -38 -21 -3 -23 1 -23 38 0 37
2 41 23 38 18 -2 22 -9 22 -38z"/>
<path d="M1880 4825 c0 -8 -9 -15 -19 -15 -24 0 -37 -36 -21 -55 7 -8 21 -15
31 -15 16 0 19 8 19 50 0 28 -2 50 -5 50 -3 0 -5 -7 -5 -15z m-3 -41 c8 -22
-15 -44 -26 -25 -10 16 -4 41 10 41 5 0 12 -7 16 -16z"/>
<path d="M2220 4826 c0 -7 -9 -16 -21 -19 -30 -8 -23 -61 9 -65 20 -3 22 0 22
47 0 28 -2 51 -5 51 -3 0 -5 -6 -5 -14z m0 -51 c0 -16 -6 -25 -15 -25 -9 0
-15 9 -15 25 0 16 6 25 15 25 9 0 15 -9 15 -25z"/>
<path d="M1948 4820 c-5 -17 3 -80 11 -80 7 0 6 79 -2 86 -3 3 -7 0 -9 -6z"/>
<path d="M1384 4796 c-10 -26 0 -51 21 -51 16 0 20 7 20 30 0 33 -30 49 -41
21z m36 -21 c0 -16 -6 -25 -15 -25 -9 0 -15 9 -15 25 0 16 6 25 15 25 9 0 15
-9 15 -25z"/>
<path d="M1451 4778 c5 -18 9 -34 9 -36 0 -2 5 0 10 3 6 3 10 14 10 23 0 15
-2 15 -10 2 -8 -12 -10 -11 -10 7 0 12 -4 24 -9 28 -6 3 -6 -7 0 -27z"/>
<path d="M1480 4803 c0 -4 5 -15 10 -23 8 -13 10 -13 10 2 0 9 -4 20 -10 23
-5 3 -10 3 -10 -2z"/>
<path d="M1511 4779 c-6 -18 -9 -34 -7 -36 2 -2 9 10 15 28 6 18 9 34 7 36 -2
2 -9 -10 -15 -28z"/>
<path d="M1552 4773 c1 -37 1 -37 5 -5 3 18 10 32 18 32 8 0 16 -14 18 -32 l5
-33 -2 35 c-1 28 -5 36 -23 38 -21 3 -23 -1 -21 -35z"/>
<path d="M1621 4778 c5 -18 9 -34 9 -36 0 -2 5 0 10 3 6 3 10 14 10 23 0 15
-2 15 -10 2 -8 -12 -10 -11 -10 7 0 12 -4 24 -9 28 -6 3 -6 -7 0 -27z"/>
<path d="M1650 4803 c0 -4 5 -15 10 -23 8 -13 10 -13 10 2 0 9 -4 20 -10 23
-5 3 -10 3 -10 -2z"/>
<path d="M1681 4779 c-6 -18 -9 -34 -7 -36 2 -2 9 10 15 28 6 18 9 34 7 36 -2
2 -9 -10 -15 -28z"/>
<path d="M1726 4801 c-3 -5 3 -7 14 -4 11 3 20 0 20 -6 0 -6 -9 -11 -20 -11
-13 0 -20 -7 -20 -20 0 -15 6 -19 25 -18 22 2 26 7 23 33 -3 30 -30 47 -42 26z
m29 -41 c-3 -5 -10 -10 -16 -10 -5 0 -9 5 -9 10 0 6 7 10 16 10 8 0 12 -4 9
-10z"/>
<path d="M1791 4773 c2 -35 2 -35 6 -8 3 16 10 33 16 37 8 5 6 8 -5 8 -14 0
-18 -8 -17 -37z"/>
<path d="M1980 4775 c0 -19 5 -35 10 -35 6 0 10 13 10 29 0 16 6 32 13 34 6 3
2 6 -10 6 -20 1 -23 -4 -23 -34z"/>
<path d="M2037 4804 c-4 -4 -7 -18 -7 -31 0 -26 26 -41 42 -25 8 8 5 9 -11 5
-12 -3 -21 -1 -21 6 0 6 9 11 21 11 14 0 19 5 17 17 -3 19 -29 29 -41 17z m33
-14 c0 -5 -7 -10 -15 -10 -8 0 -15 5 -15 10 0 6 7 10 15 10 8 0 15 -4 15 -10z"/>
<path d="M2101 4773 c1 -35 2 -36 8 -9 9 41 31 46 31 7 0 -17 5 -31 11 -31 6
0 9 14 7 33 -2 27 -8 33 -30 35 -26 3 -28 1 -27 -35z"/>
<path d="M2680 4802 c0 -5 9 -17 20 -27 20 -18 21 -18 42 3 24 24 18 43 -7 22
-12 -10 -19 -10 -27 -2 -14 14 -28 16 -28 4z"/>
<path d="M1893 3373 c9 -2 23 -2 30 0 6 3 -1 5 -18 5 -16 0 -22 -2 -12 -5z"/>
<path d="M4272 3373 c12 -3 18 -17 21 -46 l4 -42 1 42 c2 30 7 43 20 46 9 3
-1 5 -23 5 -22 0 -32 -2 -23 -5z"/>
<path d="M1944 3346 c-3 -8 -4 -25 -1 -38 3 -18 5 -16 6 9 1 21 7 33 19 36 16
4 16 5 -1 6 -10 0 -20 -5 -23 -13z"/>
<path d="M1990 3345 c-22 -27 17 -72 41 -48 6 6 2 9 -13 9 -17 -1 -23 5 -23
19 0 14 6 20 22 19 12 0 20 3 17 8 -8 13 -30 9 -44 -7z"/>
<path d="M2064 3345 c-3 -7 -4 -24 -1 -37 3 -17 5 -14 6 11 1 29 4 33 24 28
12 -3 31 -2 42 3 15 5 8 8 -23 8 -28 1 -45 -4 -48 -13z"/>
<path d="M4346 3352 c-3 -5 6 -7 19 -4 21 4 25 1 25 -22 0 -19 -5 -26 -19 -26
-11 0 -22 5 -24 10 -3 6 -4 5 -3 -2 2 -7 14 -13 27 -13 20 0 24 5 24 30 0 23
-5 31 -22 33 -11 2 -24 -1 -27 -6z"/>
<path d="M1893 3333 c9 -2 23 -2 30 0 6 3 -1 5 -18 5 -16 0 -22 -2 -12 -5z"/>
<path d="M2151 3304 c0 -11 3 -14 6 -6 3 7 2 16 -1 19 -3 4 -6 -2 -5 -13z"/>
<path d="M1786 3191 c-28 -31 -26 -145 3 -174 21 -22 25 -22 434 -22 255 0
420 4 432 10 14 7 -114 12 -410 15 l-430 5 -5 94 c-5 92 -5 93 -24 72z"/>
<path d="M4186 3191 c-28 -31 -26 -145 3 -174 21 -22 25 -22 434 -22 255 0
420 4 432 10 14 7 -114 12 -410 15 l-430 5 -5 94 c-5 92 -5 93 -24 72z"/>
<path d="M1898 3151 c-24 -24 -23 -51 2 -51 16 0 20 7 20 35 0 40 1 40 -22 16z
m12 -26 c0 -8 -4 -15 -10 -15 -5 0 -10 7 -10 15 0 8 5 15 10 15 6 0 10 -7 10
-15z"/>
<path d="M1946 3150 c-20 -21 -15 -50 9 -50 11 0 15 10 15 35 0 40 1 40 -24
15z m14 -25 c0 -8 -4 -15 -10 -15 -5 0 -10 7 -10 15 0 8 5 15 10 15 6 0 10 -7
10 -15z"/>
<path d="M2196 3155 c-9 -26 -7 -32 5 -12 6 10 9 21 6 23 -2 3 -7 -2 -11 -11z"/>
<path d="M2594 3156 c-3 -8 -4 -25 -2 -38 2 -19 9 -23 38 -23 33 0 35 2 38 38
3 36 3 37 -33 37 -22 0 -38 -6 -41 -14z m66 -31 c0 -21 -5 -25 -30 -25 -25 0
-30 4 -30 25 0 21 5 25 30 25 25 0 30 -4 30 -25z"/>
<path d="M4298 3151 c-24 -24 -23 -51 2 -51 16 0 20 7 20 35 0 40 1 40 -22 16z
m12 -26 c0 -8 -4 -15 -10 -15 -5 0 -10 7 -10 15 0 8 5 15 10 15 6 0 10 -7 10
-15z"/>
<path d="M4346 3150 c-20 -21 -15 -50 9 -50 11 0 15 10 15 35 0 40 1 40 -24
15z m14 -25 c0 -8 -4 -15 -10 -15 -5 0 -10 7 -10 15 0 8 5 15 10 15 6 0 10 -7
10 -15z"/>
<path d="M4596 3155 c-9 -26 -7 -32 5 -12 6 10 9 21 6 23 -2 3 -7 -2 -11 -11z"/>
<path d="M4994 3156 c-3 -8 -4 -25 -2 -38 2 -19 9 -23 38 -23 33 0 35 2 38 38
3 36 3 37 -33 37 -22 0 -38 -6 -41 -14z m66 -31 c0 -21 -5 -25 -30 -25 -25 0
-30 4 -30 25 0 21 5 25 30 25 25 0 30 -4 30 -25z"/>
<path d="M2016 3145 c-9 -26 -7 -32 5 -12 6 10 9 21 6 23 -2 3 -7 -2 -11 -11z"/>
<path d="M4416 3145 c-9 -26 -7 -32 5 -12 6 10 9 21 6 23 -2 3 -7 -2 -11 -11z"/>
<path d="M2068 3123 l6 -28 6 25 7 25 5 -25 c5 -25 5 -25 7 3 1 20 -4 27 -18
27 -15 0 -17 -5 -13 -27z"/>
<path d="M2111 3123 l1 -28 7 25 8 25 4 -25 5 -25 5 28 c5 22 3 27 -12 27 -14
0 -19 -7 -18 -27z"/>
<path d="M2266 3133 c-6 -15 -9 -15 -17 -3 -8 11 -9 9 -4 -9 5 -15 2 -27 -6
-32 -10 -6 -10 -9 -2 -9 13 0 48 58 40 66 -3 3 -8 -3 -11 -13z"/>
<path d="M2294 3115 c1 -19 4 -35 7 -35 10 0 32 60 25 67 -3 3 -6 -2 -6 -13
-1 -18 -2 -18 -14 -2 -11 15 -12 13 -12 -17z"/>
<path d="M2340 3146 c0 -4 5 -17 11 -28 9 -16 8 -23 -2 -29 -11 -7 -11 -9 -1
-9 13 0 36 49 27 58 -3 3 -5 -1 -5 -9 -1 -10 -5 -8 -15 5 -8 11 -15 16 -15 12z"/>
<path d="M2402 3127 c10 -23 9 -30 -3 -38 -9 -6 -10 -9 -2 -9 14 0 38 39 29
48 -3 3 -6 1 -6 -3 0 -5 -7 0 -15 11 -14 18 -14 17 -3 -9z"/>
<path d="M4468 3123 l6 -28 6 25 7 25 5 -25 c5 -25 5 -25 7 3 1 20 -4 27 -18
27 -15 0 -17 -5 -13 -27z"/>
<path d="M4511 3123 l1 -28 7 25 8 25 4 -25 5 -25 5 28 c5 22 3 27 -12 27 -14
0 -19 -7 -18 -27z"/>
<path d="M4666 3133 c-6 -15 -9 -15 -17 -3 -8 11 -9 9 -4 -9 5 -15 2 -27 -6
-32 -10 -6 -10 -9 -2 -9 13 0 48 58 40 66 -3 3 -8 -3 -11 -13z"/>
<path d="M4694 3115 c1 -19 4 -35 7 -35 10 0 32 60 25 67 -3 3 -6 -2 -6 -13
-1 -18 -2 -18 -14 -2 -11 15 -12 13 -12 -17z"/>
<path d="M4740 3146 c0 -4 5 -17 11 -28 9 -16 8 -23 -2 -29 -11 -7 -11 -9 -1
-9 13 0 36 49 27 58 -3 3 -5 -1 -5 -9 -1 -10 -5 -8 -15 5 -8 11 -15 16 -15 12z"/>
<path d="M4802 3127 c10 -23 9 -30 -3 -38 -9 -6 -10 -9 -2 -9 14 0 38 39 29
48 -3 3 -6 1 -6 -3 0 -5 -7 0 -15 11 -14 18 -14 17 -3 -9z"/>
<path d="M2176 3103 c-6 -14 -5 -15 5 -6 7 7 10 15 7 18 -3 3 -9 -2 -12 -12z"/>
<path d="M4576 3103 c-6 -14 -5 -15 5 -6 7 7 10 15 7 18 -3 3 -9 -2 -12 -12z"/>
<path d="M4867 1510 c-119 -30 -190 -123 -190 -247 1 -77 29 -139 88 -191 61
-53 99 -62 271 -62 136 0 153 2 199 24 153 72 194 265 83 391 -65 74 -109 88
-273 92 -77 1 -157 -2 -178 -7z m337 -22 c55 -16 138 -99 154 -154 28 -94 8
-169 -63 -239 -31 -32 -65 -55 -91 -63 -54 -16 -294 -16 -348 0 -55 16 -138
99 -154 154 -28 94 -8 169 63 239 27 28 66 56 85 62 49 15 303 16 354 1z"/>
<path d="M4770 1301 c-23 -44 1 -88 43 -77 15 3 27 11 27 17 0 8 -5 7 -15 -1
-23 -19 -45 -4 -45 30 0 36 22 49 48 29 15 -13 16 -12 3 4 -18 23 -48 22 -61
-2z"/>
<path d="M4930 1270 c0 -27 5 -50 10 -50 6 0 10 23 10 50 0 28 -4 50 -10 50
-5 0 -10 -22 -10 -50z"/>
<path d="M5100 1270 c0 -27 5 -50 10 -50 6 0 10 23 10 50 0 28 -4 50 -10 50
-5 0 -10 -22 -10 -50z"/>
<path d="M5208 1300 c-5 -17 3 -80 11 -80 7 0 6 79 -2 86 -3 3 -7 0 -9 -6z"/>
<path d="M4866 1281 c-4 -5 3 -7 14 -4 11 3 20 0 20 -6 0 -6 -9 -11 -20 -11
-13 0 -20 -7 -20 -20 0 -15 6 -19 25 -18 21 2 25 7 25 35 0 26 -4 33 -19 33
-11 0 -22 -4 -25 -9z m29 -41 c-3 -5 -10 -10 -16 -10 -5 0 -9 5 -9 10 0 6 7
10 16 10 8 0 12 -4 9 -10z"/>
<path d="M4965 1271 c-12 -39 31 -73 51 -39 5 8 2 9 -11 4 -21 -8 -36 9 -28
31 3 8 13 11 25 7 14 -4 18 -2 14 5 -11 18 -44 13 -51 -8z"/>
<path d="M5032 1258 c-2 -34 0 -38 23 -38 23 0 25 4 23 38 -1 36 -1 36 -5 5
-3 -19 -10 -33 -18 -33 -8 0 -15 14 -18 33 -4 31 -4 31 -5 -5z"/>
<path d="M5140 1281 c0 -6 7 -8 15 -5 8 4 15 2 15 -4 0 -5 -9 -12 -21 -15 -29
-8 -19 -31 15 -35 26 -3 27 -1 24 30 -2 25 -8 34 -25 36 -13 2 -23 -1 -23 -7z
m30 -41 c0 -5 -4 -10 -10 -10 -5 0 -10 5 -10 10 0 6 5 10 10 10 6 0 10 -4 10
-10z"/>
<path d="M5246 1272 c-4 -11 -4 -27 0 -36 7 -18 39 -22 50 -5 4 7 0 9 -14 5
-11 -4 -23 -2 -27 4 -4 6 4 10 20 10 20 0 26 4 23 18 -5 25 -45 28 -52 4z m39
-2 c3 -5 -3 -10 -15 -10 -12 0 -18 5 -15 10 3 6 10 10 15 10 5 0 12 -4 15 -10z"/>
<path d="M1642 1488 c-17 -17 -17 -429 0 -446 17 -17 2959 -17 2976 0 17 17
17 429 0 446 -17 17 -2959 17 -2976 0z m1228 -197 c-18 -5 -25 -14 -25 -31 0
-17 7 -26 25 -32 23 -6 23 -7 -5 -5 -23 2 -31 7 -33 25 -5 37 5 52 35 51 l28
-1 -25 -7z m61 -11 c15 0 19 -7 18 -32 -2 -32 -2 -32 -6 -5 -5 33 -25 31 -34
-4 -5 -18 -7 -12 -7 21 0 25 2 39 5 33 2 -7 13 -13 24 -13z m173 -12 c4 6 12
12 18 12 7 0 6 -6 -2 -15 -10 -12 -10 -18 0 -30 8 -9 8 -15 2 -15 -6 0 -13 6
-16 13 -5 10 -7 10 -12 0 -3 -7 -19 -13 -35 -13 -27 0 -30 3 -27 28 2 19 9 28
26 30 12 2 22 9 23 15 1 7 4 1 8 -13 5 -17 9 -21 15 -12z m116 -9 c0 -38 -1
-40 -27 -37 -36 4 -46 46 -14 55 12 3 21 9 21 14 0 5 5 9 10 9 6 0 10 -18 10
-41z m92 13 c-16 -5 -15 -39 1 -45 7 -4 6 -6 -4 -6 -11 -1 -18 9 -21 29 -5 35
-2 41 20 32 10 -4 12 -7 4 -10z m-294 -9 c2 -8 -5 -13 -17 -13 -28 0 -27 -17
2 -23 19 -4 19 -4 -5 -6 -31 -1 -42 11 -33 40 7 22 45 23 53 2z m260 -15 c3
-24 0 -28 -22 -28 -16 0 -26 6 -26 15 0 8 7 15 15 15 21 0 19 17 -2 24 -11 3
-7 4 7 3 19 -2 26 -8 28 -29z m100 15 c2 -8 -5 -13 -17 -13 -12 0 -21 -4 -21
-10 0 -5 19 -10 43 -10 37 1 40 2 25 14 -25 18 -22 36 5 35 20 0 20 -1 3 -8
-18 -7 -18 -8 -3 -14 9 -3 17 -13 17 -22 0 -11 -12 -15 -50 -15 -49 0 -50 1
-50 31 0 26 3 30 22 27 12 -2 23 -9 26 -15z"/>
<path d="M3040 1250 c0 -13 7 -20 20 -20 13 0 20 7 20 20 0 13 -7 20 -20 20
-13 0 -20 -7 -20 -20z"/>
<path d="M3175 1260 c-7 -12 2 -30 16 -30 5 0 9 9 9 20 0 21 -15 27 -25 10z"/>
<path d="M3348 1263 c7 -3 16 -2 19 1 4 3 -2 6 -13 5 -11 0 -14 -3 -6 -6z"/>
</g>
</svg>
