<?xml version="1.0" encoding="UTF-8" standalone="no"?>
<!DOCTYPE svg PUBLIC "-//W3C//DTD SVG 1.1//EN" "http://www.w3.org/Graphics/SVG/1.1/DTD/svg11.dtd">
<svg xmlns="http://www.w3.org/2000/svg" xmlns:xlink="http://www.w3.org/1999/xlink" version="1.1" width="595pt" height="842pt" viewBox="0 0 595 842">
<g enable-background="new">
<g>
<g id="Layer-1" data-name="P">
<clipPath id="cp161">
<path transform="matrix(1,0,0,-1,0,842)" d="M .000008866 0 L 595 0 L 595 842 L .000008866 842 Z " fill-rule="evenodd"/>
</clipPath>
<g clip-path="url(#cp161)">
<text xml:space="preserve" transform="matrix(1 0 -0 1 0 842)" font-size="12" font-family="Calibri"><tspan y="-759.72" x="186.83"> </tspan></text>
</g>
</g>
<g id="Layer-1" data-name="P">
<clipPath id="cp162">
<path transform="matrix(1,0,0,-1,0,842)" d="M .000008866 0 L 595 0 L 595 842 L .000008866 842 Z " fill-rule="evenodd"/>
</clipPath>
<g clip-path="url(#cp162)">
<text xml:space="preserve" transform="matrix(1 0 -0 1 0 842)" font-size="14" font-family="Calibri"><tspan y="-743.22" x="186.83 195.328 202.062 206.794 213.528 216.76201 223.244 227.97602 232.96002 240.21202 245.96602 250.69803 257.95005 262.93403 269.906 275.422 278.656 285.39 292.64204 299.89405 303.12806 311.12205 314.34205 320.86604 328.35603 333.34 336.336 341.068 348.32 359.562">Data Structures and Algorithms</tspan></text>
</g>
<clipPath id="cp163">
<path transform="matrix(1,0,0,-1,0,842)" d="M .000008866 0 L 595 0 L 595 842 L .000008866 842 Z " fill-rule="evenodd"/>
</clipPath>
<g clip-path="url(#cp163)">
<text xml:space="preserve" transform="matrix(1 0 -0 1 0 842)" font-size="14" font-family="Calibri"><tspan y="-743.22" x="365.15"> </tspan></text>
</g>
</g>
<g id="Layer-1" data-name="P">
<clipPath id="cp164">
<path transform="matrix(1,0,0,-1,0,842)" d="M .000008866 0 L 595 0 L 595 842 L .000008866 842 Z " fill-rule="evenodd"/>
</clipPath>
<g clip-path="url(#cp164)">
<text xml:space="preserve" transform="matrix(1 0 -0 1 0 842)" font-size="12" font-family="Calibri"><tspan y="-727.97" x="186.83">-</tspan></text>
</g>
<clipPath id="cp165">
<path transform="matrix(1,0,0,-1,0,842)" d="M .000008866 0 L 595 0 L 595 842 L .000008866 842 Z " fill-rule="evenodd"/>
</clipPath>
<g clip-path="url(#cp165)">
<text xml:space="preserve" transform="matrix(1 0 -0 1 0 842)" font-size="12" font-family="ArialMT"><tspan y="-727.97" x="190.58"> </tspan></text>
</g>
<clipPath id="cp166">
<path transform="matrix(1,0,0,-1,0,842)" d="M .000008866 0 L 595 0 L 595 842 L .000008866 842 Z " fill-rule="evenodd"/>
</clipPath>
<g clip-path="url(#cp166)">
<text xml:space="preserve" transform="matrix(1 0 -0 1 0 842)" font-size="12" font-family="Calibri"><tspan y="-727.97" x="204.83 211.814 216.554 222.03801 231.542 237.794 241.81401 248.04203 252.06203 254.82202 259.79 262.526 268.77799 274.754 281.054 286.80198 292.262 295.022 301.262 307.51399 311.74998 314.48597 320.73799 324.46998 327.20597 330.93797 337.18995 343.44194 348.44593 352.4659 355.22593 361.44194 367.6939">Asymptotic behaviour of functions</tspan></text>
</g>
<clipPath id="cp167">
<path transform="matrix(1,0,0,-1,0,842)" d="M .000008866 0 L 595 0 L 595 842 L .000008866 842 Z " fill-rule="evenodd"/>
</clipPath>
<g clip-path="url(#cp167)">
<text xml:space="preserve" transform="matrix(1 0 -0 1 0 842)" font-size="12" font-family="Calibri"><tspan y="-727.97" x="372.9"> </tspan></text>
</g>
</g>
<g id="Layer-1" data-name="P">
<clipPath id="cp168">
<path transform="matrix(1,0,0,-1,0,842)" d="M .000008866 0 L 595 0 L 595 842 L .000008866 842 Z " fill-rule="evenodd"/>
</clipPath>
<g clip-path="url(#cp168)">
<text xml:space="preserve" transform="matrix(1 0 -0 1 0 842)" font-size="12" font-family="Calibri"><tspan y="-713.2" x="186.83">-</tspan></text>
</g>
<clipPath id="cp169">
<path transform="matrix(1,0,0,-1,0,842)" d="M .000008866 0 L 595 0 L 595 842 L .000008866 842 Z " fill-rule="evenodd"/>
</clipPath>
<g clip-path="url(#cp169)">
<text xml:space="preserve" transform="matrix(1 0 -0 1 0 842)" font-size="12" font-family="ArialMT"><tspan y="-713.2" x="190.58"> </tspan></text>
</g>
<clipPath id="cp170">
<path transform="matrix(1,0,0,-1,0,842)" d="M .000008866 0 L 595 0 L 595 842 L .000008866 842 Z " fill-rule="evenodd"/>
</clipPath>
<g clip-path="url(#cp170)">
<text xml:space="preserve" transform="matrix(1 0 -0 1 0 842)" font-size="12" font-family="Calibri"><tspan y="-713.2" x="204.83 212.31801 218.06601 222.08602 227.83402 232.55002 236.57003 240.78203 247.03403 252.03803 256.058 262.286 266.522 272.49803">Datastructures</tspan></text>
</g>
<clipPath id="cp171">
<path transform="matrix(1,0,0,-1,0,842)" d="M .000008866 0 L 595 0 L 595 842 L .000008866 842 Z " fill-rule="evenodd"/>
</clipPath>
<g clip-path="url(#cp171)">
<text xml:space="preserve" transform="matrix(1 0 -0 1 0 842)" font-size="12" font-family="Calibri"><tspan y="-713.2" x="277.13"> </tspan></text>
</g>
</g>
<g id="Layer-1" data-name="P">
<clipPath id="cp172">
<path transform="matrix(1,0,0,-1,0,842)" d="M .000008866 0 L 595 0 L 595 842 L .000008866 842 Z " fill-rule="evenodd"/>
</clipPath>
<g clip-path="url(#cp172)">
<text xml:space="preserve" transform="matrix(1 0 -0 1 0 842)" font-size="12" font-family="Calibri"><tspan y="-698.7" x="186.83">-</tspan></text>
</g>
<clipPath id="cp173">
<path transform="matrix(1,0,0,-1,0,842)" d="M .000008866 0 L 595 0 L 595 842 L .000008866 842 Z " fill-rule="evenodd"/>
</clipPath>
<g clip-path="url(#cp173)">
<text xml:space="preserve" transform="matrix(1 0 -0 1 0 842)" font-size="12" font-family="ArialMT"><tspan y="-698.7" x="190.58"> </tspan></text>
</g>
<clipPath id="cp174">
<path transform="matrix(1,0,0,-1,0,842)" d="M .000008866 0 L 595 0 L 595 842 L .000008866 842 Z " fill-rule="evenodd"/>
</clipPath>
<g clip-path="url(#cp174)">
<text xml:space="preserve" transform="matrix(1 0 -0 1 0 842)" font-size="12" font-family="Calibri"><tspan y="-698.7" x="204.83 209.834 215.582 221.834 227.56999 233.82199 239.56999 245.30599 251.28199 254.54599 257.28199 263.774 269.75">Language: C++</tspan></text>
</g>
<clipPath id="cp175">
<path transform="matrix(1,0,0,-1,0,842)" d="M .000008866 0 L 595 0 L 595 842 L .000008866 842 Z " fill-rule="evenodd"/>
</clipPath>
<g clip-path="url(#cp175)">
<text xml:space="preserve" transform="matrix(1 0 -0 1 0 842)" font-size="12" font-family="Calibri"><tspan y="-698.7" x="275.63"> </tspan></text>
</g>
</g>
<g id="Layer-1" data-name="P">
<clipPath id="cp176">
<path transform="matrix(1,0,0,-1,0,842)" d="M .000008866 0 L 595 0 L 595 842 L .000008866 842 Z " fill-rule="evenodd"/>
</clipPath>
<g clip-path="url(#cp176)">
<text xml:space="preserve" transform="matrix(1 0 -0 1 0 842)" font-size="12" font-family="Calibri"><tspan y="-683.95" x="56.775"> </tspan></text>
</g>
</g>
<g id="Layer-1" data-name="P">
<clipPath id="cp177">
<path transform="matrix(1,0,0,-1,0,842)" d="M .000008866 0 L 595 0 L 595 842 L .000008866 842 Z " fill-rule="evenodd"/>
</clipPath>
<g clip-path="url(#cp177)">
<text xml:space="preserve" transform="matrix(1 0 -0 1 0 842)" font-size="16" font-family="Calibri"><tspan y="-665.45" x="56.775 64.023 71.303 74.983 78.759 82.487">Skills</tspan></text>
</g>
<clipPath id="cp178">
<path transform="matrix(1,0,0,-1,0,842)" d="M .000008866 0 L 595 0 L 595 842 L .000008866 842 Z " fill-rule="evenodd"/>
</clipPath>
<g clip-path="url(#cp178)">
<text xml:space="preserve" transform="matrix(1 0 -0 1 0 842)" font-size="12" font-family="Calibri"><tspan y="-665.45" x="88.8"> </tspan></text>
</g>
<path transform="matrix(1,0,0,-1,0,842)" d="M 56.775 662.7 L 88.8 662.7 L 88.8 663.7 L 56.775 663.7 Z " fill-rule="evenodd"/>
</g>
<g id="Layer-1" data-name="P">
<clipPath id="cp179">
<path transform="matrix(1,0,0,-1,0,842)" d="M .000008866 0 L 595 0 L 595 842 L .000008866 842 Z " fill-rule="evenodd"/>
</clipPath>
<g clip-path="url(#cp179)">
<text xml:space="preserve" transform="matrix(1 0 -0 1 0 842)" font-size="12" font-family="Calibri"><tspan y="-649.95" x="56.775"> </tspan></text>
</g>
</g>
<g id="Layer-1" data-name="P">
<clipPath id="cp180">
<path transform="matrix(1,0,0,-1,0,842)" d="M .000008866 0 L 595 0 L 595 842 L .000008866 842 Z " fill-rule="evenodd"/>
</clipPath>
<g clip-path="url(#cp180)">
<text xml:space="preserve" transform="matrix(1 0 -0 1 0 842)" font-size="12" font-family="Calibri"><tspan y="-635.2" x="56.775"> </tspan></text>
</g>
<clipPath id="cp181">
<path transform="matrix(1,0,0,-1,0,842)" d="M .000008866 0 L 595 0 L 595 842 L .000008866 842 Z " fill-rule="evenodd"/>
</clipPath>
<g clip-path="url(#cp181)">
<text xml:space="preserve" transform="matrix(1 0 -0 1 0 842)" font-size="12" font-family="Calibri"><tspan y="-635.2" x="122.05"> </tspan></text>
</g>
<clipPath id="cp182">
<path transform="matrix(1,0,0,-1,0,842)" d="M .000008866 0 L 595 0 L 595 842 L .000008866 842 Z " fill-rule="evenodd"/>
</clipPath>
<g clip-path="url(#cp182)">
<text xml:space="preserve" transform="matrix(1 0 -0 1 0 842)" font-size="12" font-family="Calibri"><tspan y="-635.2" x="187.33 192.334 198.082 204.334 210.06999 216.32199 222.06999 227.80599 233.78199">Languages</tspan></text>
</g>
<clipPath id="cp183">
<path transform="matrix(1,0,0,-1,0,842)" d="M .000008866 0 L 595 0 L 595 842 L .000008866 842 Z " fill-rule="evenodd"/>
</clipPath>
<g clip-path="url(#cp183)">
<text xml:space="preserve" transform="matrix(1 0 -0 1 0 842)" font-size="12" font-family="Calibri"><tspan y="-635.2" x="238.6">:</tspan></text>
</g>
<clipPath id="cp184">
<path transform="matrix(1,0,0,-1,0,842)" d="M .000008866 0 L 595 0 L 595 842 L .000008866 842 Z " fill-rule="evenodd"/>
</clipPath>
<g clip-path="url(#cp184)">
<text xml:space="preserve" transform="matrix(1 0 -0 1 0 842)" font-size="12" font-family="Calibri"><tspan y="-635.2" x="241.6"> </tspan></text>
</g>
</g>
<g id="Layer-1" data-name="P">
<clipPath id="cp185">
<path transform="matrix(1,0,0,-1,0,842)" d="M .000008866 0 L 595 0 L 595 842 L .000008866 842 Z " fill-rule="evenodd"/>
</clipPath>
<g clip-path="url(#cp185)">
<text xml:space="preserve" transform="matrix(1 0 -0 1 0 842)" font-size="12" font-family="Calibri"><tspan y="-620.42" x="205.33 211.33">1.</tspan></text>
</g>
<clipPath id="cp186">
<path transform="matrix(1,0,0,-1,0,842)" d="M .000008866 0 L 595 0 L 595 842 L .000008866 842 Z " fill-rule="evenodd"/>
</clipPath>
<g clip-path="url(#cp186)">
<text xml:space="preserve" transform="matrix(1 0 -0 1 0 842)" font-size="12" font-family="ArialMT"><tspan y="-620.42" x="214.35"> </tspan></text>
</g>
<clipPath id="cp187">
<path transform="matrix(1,0,0,-1,0,842)" d="M .000008866 0 L 595 0 L 595 842 L .000008866 842 Z " fill-rule="evenodd"/>
</clipPath>
<g clip-path="url(#cp187)">
<text xml:space="preserve" transform="matrix(1 0 -0 1 0 842)" font-size="12" font-family="Calibri"><tspan y="-620.42" x="223.35 228.858 231.618 237.846 244.09799 246.85799 251.58599">Finnish</tspan></text>
</g>
<clipPath id="cp188">
<path transform="matrix(1,0,0,-1,0,842)" d="M .000008866 0 L 595 0 L 595 842 L .000008866 842 Z " fill-rule="evenodd"/>
</clipPath>
<g clip-path="url(#cp188)">
<text xml:space="preserve" transform="matrix(1 0 -0 1 0 842)" font-size="12" font-family="Calibri"><tspan y="-620.42" x="257.85">:</tspan></text>
</g>
<clipPath id="cp189">
<path transform="matrix(1,0,0,-1,0,842)" d="M .000008866 0 L 595 0 L 595 842 L .000008866 842 Z " fill-rule="evenodd"/>
</clipPath>
<g clip-path="url(#cp189)">
<text xml:space="preserve" transform="matrix(1 0 -0 1 0 842)" font-size="12" font-family="Calibri"><tspan y="-620.42" x="261.1"> </tspan></text>
</g>
<clipPath id="cp190">
<path transform="matrix(1,0,0,-1,0,842)" d="M .000008866 0 L 595 0 L 595 842 L .000008866 842 Z " fill-rule="evenodd"/>
</clipPath>
<g clip-path="url(#cp190)">
<text xml:space="preserve" transform="matrix(1 0 -0 1 0 842)" font-size="12" font-family="Calibri"><tspan y="-620.42" x="263.85 270.102 275.84999 279.86997 282.62998 288.09">native</tspan></text>
</g>
<clipPath id="cp191">
<path transform="matrix(1,0,0,-1,0,842)" d="M .000008866 0 L 595 0 L 595 842 L .000008866 842 Z " fill-rule="evenodd"/>
</clipPath>
<g clip-path="url(#cp191)">
<text xml:space="preserve" transform="matrix(1 0 -0 1 0 842)" font-size="12" font-family="Calibri"><tspan y="-620.42" x="294.13"> </tspan></text>
</g>
</g>
<g id="Layer-1" data-name="P">
<clipPath id="cp192">
<path transform="matrix(1,0,0,-1,0,842)" d="M .000008866 0 L 595 0 L 595 842 L .000008866 842 Z " fill-rule="evenodd"/>
</clipPath>
<g clip-path="url(#cp192)">
<text xml:space="preserve" transform="matrix(1 0 -0 1 0 842)" font-size="12" font-family="Calibri"><tspan y="-605.92" x="205.33 211.33">2.</tspan></text>
</g>
<clipPath id="cp193">
<path transform="matrix(1,0,0,-1,0,842)" d="M .000008866 0 L 595 0 L 595 842 L .000008866 842 Z " fill-rule="evenodd"/>
</clipPath>
<g clip-path="url(#cp193)">
<text xml:space="preserve" transform="matrix(1 0 -0 1 0 842)" font-size="12" font-family="ArialMT"><tspan y="-605.92" x="214.35"> </tspan></text>
</g>
<clipPath id="cp194">
<path transform="matrix(1,0,0,-1,0,842)" d="M .000008866 0 L 595 0 L 595 842 L .000008866 842 Z " fill-rule="evenodd"/>
</clipPath>
<g clip-path="url(#cp194)">
<text xml:space="preserve" transform="matrix(1 0 -0 1 0 842)" font-size="12" font-family="Calibri"><tspan y="-605.92" x="223.35 229.098 235.35 241.08602 243.84601 246.606 251.322">English</tspan></text>
</g>
<clipPath id="cp195">
<path transform="matrix(1,0,0,-1,0,842)" d="M .000008866 0 L 595 0 L 595 842 L .000008866 842 Z " fill-rule="evenodd"/>
</clipPath>
<g clip-path="url(#cp195)">
<text xml:space="preserve" transform="matrix(1 0 -0 1 0 842)" font-size="12" font-family="Calibri"><tspan y="-605.92" x="257.6">:</tspan></text>
</g>
<clipPath id="cp196">
<path transform="matrix(1,0,0,-1,0,842)" d="M .000008866 0 L 595 0 L 595 842 L .000008866 842 Z " fill-rule="evenodd"/>
</clipPath>
<g clip-path="url(#cp196)">
<text xml:space="preserve" transform="matrix(1 0 -0 1 0 842)" font-size="12" font-family="Calibri"><tspan y="-605.92" x="260.85"> </tspan></text>
</g>
<clipPath id="cp197">
<path transform="matrix(1,0,0,-1,0,842)" d="M .000008866 0 L 595 0 L 595 842 L .000008866 842 Z " fill-rule="evenodd"/>
</clipPath>
<g clip-path="url(#cp197)">
<text xml:space="preserve" transform="matrix(1 0 -0 1 0 842)" font-size="12" font-family="Calibri"><tspan y="-605.92" x="263.6 270.1">C1</tspan></text>
</g>
<clipPath id="cp198">
<path transform="matrix(1,0,0,-1,0,842)" d="M .000008866 0 L 595 0 L 595 842 L .000008866 842 Z " fill-rule="evenodd"/>
</clipPath>
<g clip-path="url(#cp198)">
<text xml:space="preserve" transform="matrix(1 0 -0 1 0 842)" font-size="12" font-family="Calibri"><tspan y="-605.92" x="276.13"> </tspan></text>
</g>
</g>
<g id="Layer-1" data-name="P">
<clipPath id="cp199">
<path transform="matrix(1,0,0,-1,0,842)" d="M .000008866 0 L 595 0 L 595 842 L .000008866 842 Z " fill-rule="evenodd"/>
</clipPath>
<g clip-path="url(#cp199)">
<text xml:space="preserve" transform="matrix(1 0 -0 1 0 842)" font-size="12" font-family="Calibri"><tspan y="-591.17" x="205.33 211.33">3.</tspan></text>
</g>
<clipPath id="cp200">
<path transform="matrix(1,0,0,-1,0,842)" d="M .000008866 0 L 595 0 L 595 842 L .000008866 842 Z " fill-rule="evenodd"/>
</clipPath>
<g clip-path="url(#cp200)">
<text xml:space="preserve" transform="matrix(1 0 -0 1 0 842)" font-size="12" font-family="ArialMT"><tspan y="-591.17" x="214.35"> </tspan></text>
</g>
<clipPath id="cp201">
<path transform="matrix(1,0,0,-1,0,842)" d="M .000008866 0 L 595 0 L 595 842 L .000008866 842 Z " fill-rule="evenodd"/>
</clipPath>
<g clip-path="url(#cp201)">
<text xml:space="preserve" transform="matrix(1 0 -0 1 0 842)" font-size="12" font-family="Calibri"><tspan y="-591.17" x="223.35 226.37401 230.34601 236.09401 238.854 241.614 247.362">Italian</tspan></text>
</g>
<clipPath id="cp202">
<path transform="matrix(1,0,0,-1,0,842)" d="M .000008866 0 L 595 0 L 595 842 L .000008866 842 Z " fill-rule="evenodd"/>
</clipPath>
<g clip-path="url(#cp202)">
<text xml:space="preserve" transform="matrix(1 0 -0 1 0 842)" font-size="12" font-family="Calibri"><tspan y="-591.17" x="253.6">:</tspan></text>
</g>
<clipPath id="cp203">
<path transform="matrix(1,0,0,-1,0,842)" d="M .000008866 0 L 595 0 L 595 842 L .000008866 842 Z " fill-rule="evenodd"/>
</clipPath>
<g clip-path="url(#cp203)">
<text xml:space="preserve" transform="matrix(1 0 -0 1 0 842)" font-size="12" font-family="Calibri"><tspan y="-591.17" x="256.85"> </tspan></text>
</g>
<clipPath id="cp204">
<path transform="matrix(1,0,0,-1,0,842)" d="M .000008866 0 L 595 0 L 595 842 L .000008866 842 Z " fill-rule="evenodd"/>
</clipPath>
<g clip-path="url(#cp204)">
<text xml:space="preserve" transform="matrix(1 0 -0 1 0 842)" font-size="12" font-family="Calibri"><tspan y="-591.17" x="259.6 266.1">B1</tspan></text>
</g>
<clipPath id="cp205">
<path transform="matrix(1,0,0,-1,0,842)" d="M .000008866 0 L 595 0 L 595 842 L .000008866 842 Z " fill-rule="evenodd"/>
</clipPath>
<g clip-path="url(#cp205)">
<text xml:space="preserve" transform="matrix(1 0 -0 1 0 842)" font-size="12" font-family="Calibri"><tspan y="-591.17" x="272.38"> </tspan></text>
</g>
</g>
<g id="Layer-1" data-name="P">
<clipPath id="cp206">
<path transform="matrix(1,0,0,-1,0,842)" d="M .000008866 0 L 595 0 L 595 842 L .000008866 842 Z " fill-rule="evenodd"/>
</clipPath>
<g clip-path="url(#cp206)">
<text xml:space="preserve" transform="matrix(1 0 -0 1 0 842)" font-size="12" font-family="Calibri"><tspan y="-576.67" x="56.775"> </tspan></text>
</g>
</g>
<g id="Layer-1" data-name="P">
<clipPath id="cp207">
<path transform="matrix(1,0,0,-1,0,842)" d="M .000008866 0 L 595 0 L 595 842 L .000008866 842 Z " fill-rule="evenodd"/>
</clipPath>
<g clip-path="url(#cp207)">
<text xml:space="preserve" transform="matrix(1 0 -0 1 0 842)" font-size="12" font-family="Calibri"><tspan y="-561.93" x="187.33"> </tspan></text>
</g>
</g>
<g id="Layer-1" data-name="P">
<clipPath id="cp208">
<path transform="matrix(1,0,0,-1,0,842)" d="M .000008866 0 L 595 0 L 595 842 L .000008866 842 Z " fill-rule="evenodd"/>
</clipPath>
<g clip-path="url(#cp208)">
<text xml:space="preserve" transform="matrix(1 0 -0 1 0 842)" font-size="12" font-family="Calibri"><tspan y="-547.17" x="187.33 193.56999 197.806 204.058 209.79399 214.03 219.778 229.282 238.786 241.54599 247.786 253.52199 256.25798 260.99797 266.48194 269.24195 272.00196 274.76197">Programming skills</tspan></text>
</g>
<clipPath id="cp209">
<path transform="matrix(1,0,0,-1,0,842)" d="M .000008866 0 L 595 0 L 595 842 L .000008866 842 Z " fill-rule="evenodd"/>
</clipPath>
<g clip-path="url(#cp209)">
<text xml:space="preserve" transform="matrix(1 0 -0 1 0 842)" font-size="12" font-family="Calibri"><tspan y="-547.17" x="279.63">:</tspan></text>
</g>
<clipPath id="cp210">
<path transform="matrix(1,0,0,-1,0,842)" d="M .000008866 0 L 595 0 L 595 842 L .000008866 842 Z " fill-rule="evenodd"/>
</clipPath>
<g clip-path="url(#cp210)">
<text xml:space="preserve" transform="matrix(1 0 -0 1 0 842)" font-size="12" font-family="Calibri"><tspan y="-547.17" x="282.63"> </tspan></text>
</g>
</g>
<g id="Layer-1" data-name="P">
<clipPath id="cp211">
<path transform="matrix(1,0,0,-1,0,842)" d="M .000008866 0 L 595 0 L 595 842 L .000008866 842 Z " fill-rule="evenodd"/>
</clipPath>
<g clip-path="url(#cp211)">
<text xml:space="preserve" transform="matrix(1 0 -0 1 0 842)" font-size="12" font-family="SymbolMT"><tspan y="-531.9" x="205.33">&#x2022;</tspan></text>
</g>
<clipPath id="cp212">
<path transform="matrix(1,0,0,-1,0,842)" d="M .000008866 0 L 595 0 L 595 842 L .000008866 842 Z " fill-rule="evenodd"/>
</clipPath>
<g clip-path="url(#cp212)">
<text xml:space="preserve" transform="matrix(1 0 -0 1 0 842)" font-size="12" font-family="ArialMT"><tspan y="-531.9" x="210.85"> </tspan></text>
</g>
<clipPath id="cp213">
<path transform="matrix(1,0,0,-1,0,842)" d="M .000008866 0 L 595 0 L 595 842 L .000008866 842 Z " fill-rule="evenodd"/>
</clipPath>
<g clip-path="url(#cp213)">
<text xml:space="preserve" transform="matrix(1 0 -0 1 0 842)" font-size="12" font-family="Calibri"><tspan y="-531.9" x="223.35 229.86602 235.84201 241.59001 246.60602 250.62602 253.60202 256.59004 261.33003 264.33003 267.066 270.81 276.55799 282.054 287.80198 293.30998 298.30195 302.53794 305.29795 311.53794 315.55793 318.55793">React.js, JavaScript, </tspan></text>
</g>
<clipPath id="cp214">
<path transform="matrix(1,0,0,-1,0,842)" d="M .000008866 0 L 595 0 L 595 842 L .000008866 842 Z " fill-rule="evenodd"/>
</clipPath>
<g clip-path="url(#cp214)">
<text xml:space="preserve" transform="matrix(1 0 -0 1 0 842)" font-size="12" font-family="Calibri"><tspan y="-531.9" x="321.38 325.124 330.632">JSX</tspan></text>
</g>
<clipPath id="cp215">
<path transform="matrix(1,0,0,-1,0,842)" d="M .000008866 0 L 595 0 L 595 842 L .000008866 842 Z " fill-rule="evenodd"/>
</clipPath>
<g clip-path="url(#cp215)">
<text xml:space="preserve" transform="matrix(1 0 -0 1 0 842)" font-size="12" font-family="Calibri"><tspan y="-531.9" x="336.9">,</tspan></text>
</g>
<clipPath id="cp216">
<path transform="matrix(1,0,0,-1,0,842)" d="M .000008866 0 L 595 0 L 595 842 L .000008866 842 Z " fill-rule="evenodd"/>
</clipPath>
<g clip-path="url(#cp216)">
<text xml:space="preserve" transform="matrix(1 0 -0 1 0 842)" font-size="12" font-family="Calibri"><tspan y="-531.9" x="339.9"> </tspan></text>
</g>
<clipPath id="cp217">
<path transform="matrix(1,0,0,-1,0,842)" d="M .000008866 0 L 595 0 L 595 842 L .000008866 842 Z " fill-rule="evenodd"/>
</clipPath>
<g clip-path="url(#cp217)">
<text xml:space="preserve" transform="matrix(1 0 -0 1 0 842)" font-size="12" font-family="Calibri"><tspan y="-531.9" x="342.65 350.126 355.898 366.15803">HTML</tspan></text>
</g>
<clipPath id="cp218">
<path transform="matrix(1,0,0,-1,0,842)" d="M .000008866 0 L 595 0 L 595 842 L .000008866 842 Z " fill-rule="evenodd"/>
</clipPath>
<g clip-path="url(#cp218)">
<text xml:space="preserve" transform="matrix(1 0 -0 1 0 842)" font-size="12" font-family="Calibri"><tspan y="-531.9" x="371.15 374.15 376.886">, C</tspan></text>
</g>
<clipPath id="cp219">
<path transform="matrix(1,0,0,-1,0,842)" d="M .000008866 0 L 595 0 L 595 842 L .000008866 842 Z " fill-rule="evenodd"/>
</clipPath>
<g clip-path="url(#cp219)">
<text xml:space="preserve" transform="matrix(1 0 -0 1 0 842)" font-size="12" font-family="Calibri"><tspan y="-531.9" x="383.4 388.9">SS</tspan></text>
</g>
<clipPath id="cp220">
<path transform="matrix(1,0,0,-1,0,842)" d="M .000008866 0 L 595 0 L 595 842 L .000008866 842 Z " fill-rule="evenodd"/>
</clipPath>
<g clip-path="url(#cp220)">
<text xml:space="preserve" transform="matrix(1 0 -0 1 0 842)" font-size="12" font-family="Calibri"><tspan y="-531.9" x="394.43"> </tspan></text>
</g>
</g>
<g id="Layer-1" data-name="P">
<clipPath id="cp221">
<path transform="matrix(1,0,0,-1,0,842)" d="M .000008866 0 L 595 0 L 595 842 L .000008866 842 Z " fill-rule="evenodd"/>
</clipPath>
<g clip-path="url(#cp221)">
<text xml:space="preserve" transform="matrix(1 0 -0 1 0 842)" font-size="16" font-family="Calibri"><tspan y="-513.4" x="56.775"> </tspan></text>
</g>
</g>
<g id="Layer-1" data-name="P">
<clipPath id="cp222">
<path transform="matrix(1,0,0,-1,0,842)" d="M .000008866 0 L 595 0 L 595 842 L .000008866 842 Z " fill-rule="evenodd"/>
</clipPath>
<g clip-path="url(#cp222)">
<text xml:space="preserve" transform="matrix(1 0 -0 1 0 842)" font-size="16" font-family="Calibri"><tspan y="-493.9" x="56.775 66.743007 75.255008 83.73501 92.21501 95.71901 103.68701">Hobbies</tspan></text>
</g>
<clipPath id="cp223">
<path transform="matrix(1,0,0,-1,0,842)" d="M .000008866 0 L 595 0 L 595 842 L .000008866 842 Z " fill-rule="evenodd"/>
</clipPath>
<g clip-path="url(#cp223)">
<text xml:space="preserve" transform="matrix(1 0 -0 1 0 842)" font-size="12" font-family="Calibri"><tspan y="-493.9" x="109.8"> </tspan></text>
</g>
<path transform="matrix(1,0,0,-1,0,842)" d="M 56.775 491.15 L 109.8 491.15 L 109.8 492.15 L 56.775 492.15 Z " fill-rule="evenodd"/>
</g>
<g id="Layer-1" data-name="P">
<clipPath id="cp224">
<path transform="matrix(1,0,0,-1,0,842)" d="M .000008866 0 L 595 0 L 595 842 L .000008866 842 Z " fill-rule="evenodd"/>
</clipPath>
<g clip-path="url(#cp224)">
<text xml:space="preserve" transform="matrix(1 0 -0 1 0 842)" font-size="12" font-family="SymbolMT"><tspan y="-477.65" x="205.33">&#x2022;</tspan></text>
</g>
<clipPath id="cp225">
<path transform="matrix(1,0,0,-1,0,842)" d="M .000008866 0 L 595 0 L 595 842 L .000008866 842 Z " fill-rule="evenodd"/>
</clipPath>
<g clip-path="url(#cp225)">
<text xml:space="preserve" transform="matrix(1 0 -0 1 0 842)" font-size="12" font-family="ArialMT"><tspan y="-477.65" x="210.85"> </tspan></text>
</g>
<clipPath id="cp226">
<path transform="matrix(1,0,0,-1,0,842)" d="M .000008866 0 L 595 0 L 595 842 L .000008866 842 Z " fill-rule="evenodd"/>
</clipPath>
<g clip-path="url(#cp226)">
<text xml:space="preserve" transform="matrix(1 0 -0 1 0 842)" font-size="12" font-family="Calibri"><tspan y="-477.65" x="223.35 228.858 235.098 241.35 245.58602 249.60602">Sports</tspan></text>
</g>
<clipPath id="cp227">
<path transform="matrix(1,0,0,-1,0,842)" d="M .000008866 0 L 595 0 L 595 842 L .000008866 842 Z " fill-rule="evenodd"/>
</clipPath>
<g clip-path="url(#cp227)">
<text xml:space="preserve" transform="matrix(1 0 -0 1 0 842)" font-size="12" font-family="Calibri"><tspan y="-477.65" x="254.35"> </tspan></text>
</g>
</g>
<g id="Layer-1" data-name="P">
<clipPath id="cp228">
<path transform="matrix(1,0,0,-1,0,842)" d="M .000008866 0 L 595 0 L 595 842 L .000008866 842 Z " fill-rule="evenodd"/>
</clipPath>
<g clip-path="url(#cp228)">
<text xml:space="preserve" transform="matrix(1 0 -0 1 0 842)" font-size="12" font-family="SymbolMT"><tspan y="-462.4" x="205.33">&#x2022;</tspan></text>
</g>
<clipPath id="cp229">
<path transform="matrix(1,0,0,-1,0,842)" d="M .000008866 0 L 595 0 L 595 842 L .000008866 842 Z " fill-rule="evenodd"/>
</clipPath>
<g clip-path="url(#cp229)">
<text xml:space="preserve" transform="matrix(1 0 -0 1 0 842)" font-size="12" font-family="ArialMT"><tspan y="-462.4" x="210.85"> </tspan></text>
</g>
<clipPath id="cp230">
<path transform="matrix(1,0,0,-1,0,842)" d="M .000008866 0 L 595 0 L 595 842 L .000008866 842 Z " fill-rule="evenodd"/>
</clipPath>
<g clip-path="url(#cp230)">
<text xml:space="preserve" transform="matrix(1 0 -0 1 0 842)" font-size="12" font-family="Calibri"><tspan y="-462.4" x="223.35 229.59 233.826 240.078 245.81401 250.05002 255.79802 265.302 274.806 277.566 283.806">Programming</tspan></text>
</g>
<clipPath id="cp231">
<path transform="matrix(1,0,0,-1,0,842)" d="M .000008866 0 L 595 0 L 595 842 L .000008866 842 Z " fill-rule="evenodd"/>
</clipPath>
<g clip-path="url(#cp231)">
<text xml:space="preserve" transform="matrix(1 0 -0 1 0 842)" font-size="12" font-family="Calibri"><tspan y="-462.4" x="289.63"> </tspan></text>
</g>
</g>
<g id="Layer-1" data-name="P">
<clipPath id="cp232">
<path transform="matrix(1,0,0,-1,0,842)" d="M .000008866 0 L 595 0 L 595 842 L .000008866 842 Z " fill-rule="evenodd"/>
</clipPath>
<g clip-path="url(#cp232)">
<text xml:space="preserve" transform="matrix(1 0 -0 1 0 842)" font-size="12" font-family="SymbolMT"><tspan y="-447.13" x="205.33">&#x2022;</tspan></text>
</g>
<clipPath id="cp233">
<path transform="matrix(1,0,0,-1,0,842)" d="M .000008866 0 L 595 0 L 595 842 L .000008866 842 Z " fill-rule="evenodd"/>
</clipPath>
<g clip-path="url(#cp233)">
<text xml:space="preserve" transform="matrix(1 0 -0 1 0 842)" font-size="12" font-family="ArialMT"><tspan y="-447.13" x="210.85"> </tspan></text>
</g>
<clipPath id="cp234">
<path transform="matrix(1,0,0,-1,0,842)" d="M .000008866 0 L 595 0 L 595 842 L .000008866 842 Z " fill-rule="evenodd"/>
</clipPath>
<g clip-path="url(#cp234)">
<text xml:space="preserve" transform="matrix(1 0 -0 1 0 842)" font-size="12" font-family="Calibri"><tspan y="-447.13" x="223.35 226.37401 232.602 238.086 244.062 248.826 252.84601 255.606">Investin</tspan></text>
</g>
<clipPath id="cp235">
<path transform="matrix(1,0,0,-1,0,842)" d="M .000008866 0 L 595 0 L 595 842 L .000008866 842 Z " fill-rule="evenodd"/>
</clipPath>
<g clip-path="url(#cp235)">
<text xml:space="preserve" transform="matrix(1 0 -0 1 0 842)" font-size="12" font-family="Calibri"><tspan y="-447.13" x="261.85">g</tspan></text>
</g>
<clipPath id="cp236">
<path transform="matrix(1,0,0,-1,0,842)" d="M .000008866 0 L 595 0 L 595 842 L .000008866 842 Z " fill-rule="evenodd"/>
</clipPath>
<g clip-path="url(#cp236)">
<text xml:space="preserve" transform="matrix(1 0 -0 1 0 842)" font-size="12" font-family="Calibri"><tspan y="-447.13" x="267.63"> </tspan></text>
</g>
</g>
<g id="Layer-1" data-name="P">
<clipPath id="cp237">
<path transform="matrix(1,0,0,-1,0,842)" d="M .000008866 0 L 595 0 L 595 842 L .000008866 842 Z " fill-rule="evenodd"/>
</clipPath>
<g clip-path="url(#cp237)">
<text xml:space="preserve" transform="matrix(1 0 -0 1 0 842)" font-size="16" font-family="Calibri" font-weight="bold"><tspan y="-428.63" x="56.775"> </tspan></text>
</g>
</g>
<g id="Layer-1" data-name="P">
<clipPath id="cp238">
<path transform="matrix(1,0,0,-1,0,842)" d="M .000008866 0 L 595 0 L 595 842 L .000008866 842 Z " fill-rule="evenodd"/>
</clipPath>
<g clip-path="url(#cp238)">
<text xml:space="preserve" transform="matrix(1 0 -0 1 0 842)" font-size="16" font-family="Calibri"><tspan y="-408.88" x="122.05"> </tspan></text>
</g>
</g>
<g id="Layer-1" data-name="P">
<clipPath id="cp239">
<path transform="matrix(1,0,0,-1,0,842)" d="M .000008866 0 L 595 0 L 595 842 L .000008866 842 Z " fill-rule="evenodd"/>
</clipPath>
<g clip-path="url(#cp239)">
<text xml:space="preserve" transform="matrix(1 0 -0 1 0 842)" font-size="12" font-family="Calibri"><tspan y="-393.38" x="56.775"> </tspan></text>
</g>
</g>
</g>
</g>
</svg>
