<?xml version="1.0" encoding="UTF-8" standalone="no"?>
<!DOCTYPE svg PUBLIC "-//W3C//DTD SVG 1.1//EN" "http://www.w3.org/Graphics/SVG/1.1/DTD/svg11.dtd">
<svg xmlns="http://www.w3.org/2000/svg" xmlns:xlink="http://www.w3.org/1999/xlink" version="1.1" width="595pt" height="842pt" viewBox="0 0 595 842">
<g enable-background="new">
<g>
<g id="Layer-1" data-name="P">
<clipPath id="cp174">
<path transform="matrix(1,0,0,-1,0,842)" d="M .000008866 0 L 595 0 L 595 842 L .000008866 842 Z " fill-rule="evenodd"/>
</clipPath>
<g clip-path="url(#cp174)">
<text xml:space="preserve" transform="matrix(1 0 -0 1 0 842)" font-size="12" font-family="Calibri"><tspan y="-759.72" x="56.775"> </tspan></text>
</g>
</g>
<g id="Layer-1" data-name="P">
<clipPath id="cp175">
<path transform="matrix(1,0,0,-1,0,842)" d="M .000008866 0 L 595 0 L 595 842 L .000008866 842 Z " fill-rule="evenodd"/>
</clipPath>
<g clip-path="url(#cp175)">
<text xml:space="preserve" transform="matrix(1 0 -0 1 0 842)" font-size="12" font-family="Calibri"><tspan y="-744.97" x="187.33"> </tspan></text>
</g>
</g>
<g id="Layer-1" data-name="P">
<clipPath id="cp176">
<path transform="matrix(1,0,0,-1,0,842)" d="M .000008866 0 L 595 0 L 595 842 L .000008866 842 Z " fill-rule="evenodd"/>
</clipPath>
<g clip-path="url(#cp176)">
<text xml:space="preserve" transform="matrix(1 0 -0 1 0 842)" font-size="12" font-family="Calibri"><tspan y="-730.47" x="187.33 190.33">IT</tspan></text>
</g>
<clipPath id="cp177">
<path transform="matrix(1,0,0,-1,0,842)" d="M .000008866 0 L 595 0 L 595 842 L .000008866 842 Z " fill-rule="evenodd"/>
</clipPath>
<g clip-path="url(#cp177)">
<text xml:space="preserve" transform="matrix(1 0 -0 1 0 842)" font-size="12" font-family="Calibri"><tspan y="-730.47" x="196.08"> </tspan></text>
</g>
<clipPath id="cp178">
<path transform="matrix(1,0,0,-1,0,842)" d="M .000008866 0 L 595 0 L 595 842 L .000008866 842 Z " fill-rule="evenodd"/>
</clipPath>
<g clip-path="url(#cp178)">
<text xml:space="preserve" transform="matrix(1 0 -0 1 0 842)" font-size="12" font-family="Calibri"><tspan y="-730.47" x="198.83 204.31401 210.56601 216.81801 225.31401 228.074 234.05 240.31401 246.05">knowledge</tspan></text>
</g>
<clipPath id="cp179">
<path transform="matrix(1,0,0,-1,0,842)" d="M .000008866 0 L 595 0 L 595 842 L .000008866 842 Z " fill-rule="evenodd"/>
</clipPath>
<g clip-path="url(#cp179)">
<text xml:space="preserve" transform="matrix(1 0 -0 1 0 842)" font-size="12" font-family="Calibri"><tspan y="-730.47" x="252.1">:</tspan></text>
</g>
<clipPath id="cp180">
<path transform="matrix(1,0,0,-1,0,842)" d="M .000008866 0 L 595 0 L 595 842 L .000008866 842 Z " fill-rule="evenodd"/>
</clipPath>
<g clip-path="url(#cp180)">
<text xml:space="preserve" transform="matrix(1 0 -0 1 0 842)" font-size="12" font-family="Calibri"><tspan y="-730.47" x="255.35"> </tspan></text>
</g>
</g>
<g id="Layer-1" data-name="P">
<clipPath id="cp181">
<path transform="matrix(1,0,0,-1,0,842)" d="M .000008866 0 L 595 0 L 595 842 L .000008866 842 Z " fill-rule="evenodd"/>
</clipPath>
<g clip-path="url(#cp181)">
<text xml:space="preserve" transform="matrix(1 0 -0 1 0 842)" font-size="12" font-family="SymbolMT"><tspan y="-715.2" x="205.33">&#x2022;</tspan></text>
</g>
<clipPath id="cp182">
<path transform="matrix(1,0,0,-1,0,842)" d="M .000008866 0 L 595 0 L 595 842 L .000008866 842 Z " fill-rule="evenodd"/>
</clipPath>
<g clip-path="url(#cp182)">
<text xml:space="preserve" transform="matrix(1 0 -0 1 0 842)" font-size="12" font-family="ArialMT"><tspan y="-715.2" x="210.85"> </tspan></text>
</g>
<clipPath id="cp183">
<path transform="matrix(1,0,0,-1,0,842)" d="M .000008866 0 L 595 0 L 595 842 L .000008866 842 Z " fill-rule="evenodd"/>
</clipPath>
<g clip-path="url(#cp183)">
<text xml:space="preserve" transform="matrix(1 0 -0 1 0 842)" font-size="12" font-family="Calibri"><tspan y="-715.2" x="223.35 233.61 236.37 241.35 245.58602 251.83802 256.578 262.83003 266.562 270.582">Microsoft </tspan></text>
</g>
<clipPath id="cp184">
<path transform="matrix(1,0,0,-1,0,842)" d="M .000008866 0 L 595 0 L 595 842 L .000008866 842 Z " fill-rule="evenodd"/>
</clipPath>
<g clip-path="url(#cp184)">
<text xml:space="preserve" transform="matrix(1 0 -0 1 0 842)" font-size="12" font-family="Calibri"><tspan y="-715.2" x="273.38 279.63203 283.364 287.096 289.85603 294.848">office</tspan></text>
</g>
<clipPath id="cp185">
<path transform="matrix(1,0,0,-1,0,842)" d="M .000008866 0 L 595 0 L 595 842 L .000008866 842 Z " fill-rule="evenodd"/>
</clipPath>
<g clip-path="url(#cp185)">
<text xml:space="preserve" transform="matrix(1 0 -0 1 0 842)" font-size="12" font-family="Calibri"><tspan y="-715.2" x="300.88"> </tspan></text>
</g>
</g>
<g id="Layer-1" data-name="Span">
<clipPath id="cp186">
<path transform="matrix(1,0,0,-1,0,842)" d="M .000008866 0 L 595 0 L 595 842 L .000008866 842 Z " fill-rule="evenodd"/>
</clipPath>
<g clip-path="url(#cp186)">
<text xml:space="preserve" transform="matrix(1 0 -0 1 0 842)" font-size="12" font-family="SymbolMT"><tspan y="-699.95" x="205.33">&#x2022;</tspan></text>
</g>
<clipPath id="cp187">
<path transform="matrix(1,0,0,-1,0,842)" d="M .000008866 0 L 595 0 L 595 842 L .000008866 842 Z " fill-rule="evenodd"/>
</clipPath>
<g clip-path="url(#cp187)">
<text xml:space="preserve" transform="matrix(1 0 -0 1 0 842)" font-size="12" font-family="ArialMT"><tspan y="-699.95" x="210.85"> </tspan></text>
</g>
<clipPath id="cp188">
<path transform="matrix(1,0,0,-1,0,842)" d="M .000008866 0 L 595 0 L 595 842 L .000008866 842 Z " fill-rule="evenodd"/>
</clipPath>
<g clip-path="url(#cp188)">
<text xml:space="preserve" transform="matrix(1 0 -0 1 0 842)" font-size="12" font-family="Calibri"><tspan y="-699.95" x="223.35 227.09401 232.84201 238.33802">Java</tspan></text>
</g>
<clipPath id="cp189">
<path transform="matrix(1,0,0,-1,0,842)" d="M .000008866 0 L 595 0 L 595 842 L .000008866 842 Z " fill-rule="evenodd"/>
</clipPath>
<g clip-path="url(#cp189)">
<text xml:space="preserve" transform="matrix(1 0 -0 1 0 842)" font-size="12" font-family="Calibri"><tspan y="-699.95" x="244.1 247.1">, </tspan></text>
</g>
<clipPath id="cp190">
<path transform="matrix(1,0,0,-1,0,842)" d="M .000008866 0 L 595 0 L 595 842 L .000008866 842 Z " fill-rule="evenodd"/>
</clipPath>
<g clip-path="url(#cp190)">
<text xml:space="preserve" transform="matrix(1 0 -0 1 0 842)" font-size="12" font-family="Calibri"><tspan y="-699.95" x="249.85 256.09004 261.57405 265.59403 271.82203 278.07405">Python</tspan></text>
</g>
<clipPath id="cp191">
<path transform="matrix(1,0,0,-1,0,842)" d="M .000008866 0 L 595 0 L 595 842 L .000008866 842 Z " fill-rule="evenodd"/>
</clipPath>
<g clip-path="url(#cp191)">
<text xml:space="preserve" transform="matrix(1 0 -0 1 0 842)" font-size="12" font-family="Calibri"><tspan y="-699.95" x="284.38 287.38 290.116 296.608 302.116 307.624 310.624">, CSS, </tspan></text>
</g>
<clipPath id="cp192">
<path transform="matrix(1,0,0,-1,0,842)" d="M .000008866 0 L 595 0 L 595 842 L .000008866 842 Z " fill-rule="evenodd"/>
</clipPath>
<g clip-path="url(#cp192)">
<text xml:space="preserve" transform="matrix(1 0 -0 1 0 842)" font-size="12" font-family="Calibri"><tspan y="-699.95" x="313.38 317.124 322.632">JSX</tspan></text>
</g>
<clipPath id="cp193">
<path transform="matrix(1,0,0,-1,0,842)" d="M .000008866 0 L 595 0 L 595 842 L .000008866 842 Z " fill-rule="evenodd"/>
</clipPath>
<g clip-path="url(#cp193)">
<text xml:space="preserve" transform="matrix(1 0 -0 1 0 842)" font-size="12" font-family="Calibri"><tspan y="-699.95" x="328.9 331.9 334.636">, C</tspan></text>
</g>
<clipPath id="cp194">
<path transform="matrix(1,0,0,-1,0,842)" d="M .000008866 0 L 595 0 L 595 842 L .000008866 842 Z " fill-rule="evenodd"/>
</clipPath>
<g clip-path="url(#cp194)">
<text xml:space="preserve" transform="matrix(1 0 -0 1 0 842)" font-size="12" font-family="Calibri"><tspan y="-699.95" x="341.15 347.15">++</tspan></text>
</g>
<clipPath id="cp195">
<path transform="matrix(1,0,0,-1,0,842)" d="M .000008866 0 L 595 0 L 595 842 L .000008866 842 Z " fill-rule="evenodd"/>
</clipPath>
<g clip-path="url(#cp195)">
<text xml:space="preserve" transform="matrix(1 0 -0 1 0 842)" font-size="12" font-family="Calibri"><tspan y="-699.95" x="353.15 356.15">, </tspan></text>
</g>
<clipPath id="cp196">
<path transform="matrix(1,0,0,-1,0,842)" d="M .000008866 0 L 595 0 L 595 842 L .000008866 842 Z " fill-rule="evenodd"/>
</clipPath>
<g clip-path="url(#cp196)">
<text xml:space="preserve" transform="matrix(1 0 -0 1 0 842)" font-size="12" font-family="Calibri"><tspan y="-699.95" x="358.9">G</tspan></text>
</g>
<clipPath id="cp197">
<path transform="matrix(1,0,0,-1,0,842)" d="M .000008866 0 L 595 0 L 595 842 L .000008866 842 Z " fill-rule="evenodd"/>
</clipPath>
<g clip-path="url(#cp197)">
<text xml:space="preserve" transform="matrix(1 0 -0 1 0 842)" font-size="12" font-family="Calibri"><tspan y="-699.95" x="366.4 369.15">it</tspan></text>
</g>
<clipPath id="cp198">
<path transform="matrix(1,0,0,-1,0,842)" d="M .000008866 0 L 595 0 L 595 842 L .000008866 842 Z " fill-rule="evenodd"/>
</clipPath>
<g clip-path="url(#cp198)">
<text xml:space="preserve" transform="matrix(1 0 -0 1 0 842)" font-size="12" font-family="Calibri"><tspan y="-699.95" x="372.9"> </tspan></text>
</g>
</g>
<g id="Layer-1" data-name="P">
<clipPath id="cp199">
<path transform="matrix(1,0,0,-1,0,842)" d="M .000008866 0 L 595 0 L 595 842 L .000008866 842 Z " fill-rule="evenodd"/>
</clipPath>
<g clip-path="url(#cp199)">
<text xml:space="preserve" transform="matrix(1 0 -0 1 0 842)" font-size="12" font-family="SymbolMT"><tspan y="-684.7" x="205.33">&#x2022;</tspan></text>
</g>
<clipPath id="cp200">
<path transform="matrix(1,0,0,-1,0,842)" d="M .000008866 0 L 595 0 L 595 842 L .000008866 842 Z " fill-rule="evenodd"/>
</clipPath>
<g clip-path="url(#cp200)">
<text xml:space="preserve" transform="matrix(1 0 -0 1 0 842)" font-size="12" font-family="ArialMT"><tspan y="-684.7" x="210.85"> </tspan></text>
</g>
<clipPath id="cp201">
<path transform="matrix(1,0,0,-1,0,842)" d="M .000008866 0 L 595 0 L 595 842 L .000008866 842 Z " fill-rule="evenodd"/>
</clipPath>
<g clip-path="url(#cp201)">
<text xml:space="preserve" transform="matrix(1 0 -0 1 0 842)" font-size="12" font-family="Calibri"><tspan y="-684.7" x="223.35 233.61 239.358 243.378 246.102 251.85">Matlab</tspan></text>
</g>
<clipPath id="cp202">
<path transform="matrix(1,0,0,-1,0,842)" d="M .000008866 0 L 595 0 L 595 842 L .000008866 842 Z " fill-rule="evenodd"/>
</clipPath>
<g clip-path="url(#cp202)">
<text xml:space="preserve" transform="matrix(1 0 -0 1 0 842)" font-size="12" font-family="Calibri"><tspan y="-684.7" x="258.1"> </tspan></text>
</g>
</g>
<g id="Layer-1" data-name="P">
<clipPath id="cp203">
<path transform="matrix(1,0,0,-1,0,842)" d="M .000008866 0 L 595 0 L 595 842 L .000008866 842 Z " fill-rule="evenodd"/>
</clipPath>
<g clip-path="url(#cp203)">
<text xml:space="preserve" transform="matrix(1 0 -0 1 0 842)" font-size="16" font-family="Calibri"><tspan y="-665.95" x="56.775"> </tspan></text>
</g>
</g>
<g id="Layer-1" data-name="P">
<clipPath id="cp204">
<path transform="matrix(1,0,0,-1,0,842)" d="M .000008866 0 L 595 0 L 595 842 L .000008866 842 Z " fill-rule="evenodd"/>
</clipPath>
<g clip-path="url(#cp204)">
<text xml:space="preserve" transform="matrix(1 0 -0 1 0 842)" font-size="16" font-family="Calibri"><tspan y="-646.45" x="56.775 66.743007 75.255008 83.73501 92.21501 95.71901 103.68701">Hobbies</tspan></text>
</g>
<clipPath id="cp205">
<path transform="matrix(1,0,0,-1,0,842)" d="M .000008866 0 L 595 0 L 595 842 L .000008866 842 Z " fill-rule="evenodd"/>
</clipPath>
<g clip-path="url(#cp205)">
<text xml:space="preserve" transform="matrix(1 0 -0 1 0 842)" font-size="12" font-family="Calibri"><tspan y="-646.45" x="109.8"> </tspan></text>
</g>
<path transform="matrix(1,0,0,-1,0,842)" d="M 56.775 643.7 L 109.8 643.7 L 109.8 644.7 L 56.775 644.7 Z " fill-rule="evenodd"/>
</g>
<g id="Layer-1" data-name="P">
<clipPath id="cp206">
<path transform="matrix(1,0,0,-1,0,842)" d="M .000008866 0 L 595 0 L 595 842 L .000008866 842 Z " fill-rule="evenodd"/>
</clipPath>
<g clip-path="url(#cp206)">
<text xml:space="preserve" transform="matrix(1 0 -0 1 0 842)" font-size="12" font-family="SymbolMT"><tspan y="-630.17" x="205.33">&#x2022;</tspan></text>
</g>
<clipPath id="cp207">
<path transform="matrix(1,0,0,-1,0,842)" d="M .000008866 0 L 595 0 L 595 842 L .000008866 842 Z " fill-rule="evenodd"/>
</clipPath>
<g clip-path="url(#cp207)">
<text xml:space="preserve" transform="matrix(1 0 -0 1 0 842)" font-size="12" font-family="ArialMT"><tspan y="-630.17" x="210.85"> </tspan></text>
</g>
<clipPath id="cp208">
<path transform="matrix(1,0,0,-1,0,842)" d="M .000008866 0 L 595 0 L 595 842 L .000008866 842 Z " fill-rule="evenodd"/>
</clipPath>
<g clip-path="url(#cp208)">
<text xml:space="preserve" transform="matrix(1 0 -0 1 0 842)" font-size="12" font-family="Calibri"><tspan y="-630.17" x="223.35 228.858 235.098 241.35 245.58602 249.60602">Sports</tspan></text>
</g>
<clipPath id="cp209">
<path transform="matrix(1,0,0,-1,0,842)" d="M .000008866 0 L 595 0 L 595 842 L .000008866 842 Z " fill-rule="evenodd"/>
</clipPath>
<g clip-path="url(#cp209)">
<text xml:space="preserve" transform="matrix(1 0 -0 1 0 842)" font-size="12" font-family="Calibri"><tspan y="-630.17" x="254.35"> </tspan></text>
</g>
</g>
<g id="Layer-1" data-name="P">
<clipPath id="cp210">
<path transform="matrix(1,0,0,-1,0,842)" d="M .000008866 0 L 595 0 L 595 842 L .000008866 842 Z " fill-rule="evenodd"/>
</clipPath>
<g clip-path="url(#cp210)">
<text xml:space="preserve" transform="matrix(1 0 -0 1 0 842)" font-size="12" font-family="SymbolMT"><tspan y="-614.92" x="205.33">&#x2022;</tspan></text>
</g>
<clipPath id="cp211">
<path transform="matrix(1,0,0,-1,0,842)" d="M .000008866 0 L 595 0 L 595 842 L .000008866 842 Z " fill-rule="evenodd"/>
</clipPath>
<g clip-path="url(#cp211)">
<text xml:space="preserve" transform="matrix(1 0 -0 1 0 842)" font-size="12" font-family="ArialMT"><tspan y="-614.92" x="210.85"> </tspan></text>
</g>
<clipPath id="cp212">
<path transform="matrix(1,0,0,-1,0,842)" d="M .000008866 0 L 595 0 L 595 842 L .000008866 842 Z " fill-rule="evenodd"/>
</clipPath>
<g clip-path="url(#cp212)">
<text xml:space="preserve" transform="matrix(1 0 -0 1 0 842)" font-size="12" font-family="Calibri"><tspan y="-614.92" x="223.35 229.59 233.826 240.078 245.81401 250.05002 255.79802 265.302 274.806 277.566 283.806">Programming</tspan></text>
</g>
<clipPath id="cp213">
<path transform="matrix(1,0,0,-1,0,842)" d="M .000008866 0 L 595 0 L 595 842 L .000008866 842 Z " fill-rule="evenodd"/>
</clipPath>
<g clip-path="url(#cp213)">
<text xml:space="preserve" transform="matrix(1 0 -0 1 0 842)" font-size="12" font-family="Calibri"><tspan y="-614.92" x="289.63"> </tspan></text>
</g>
</g>
<g id="Layer-1" data-name="P">
<clipPath id="cp214">
<path transform="matrix(1,0,0,-1,0,842)" d="M .000008866 0 L 595 0 L 595 842 L .000008866 842 Z " fill-rule="evenodd"/>
</clipPath>
<g clip-path="url(#cp214)">
<text xml:space="preserve" transform="matrix(1 0 -0 1 0 842)" font-size="12" font-family="SymbolMT"><tspan y="-599.67" x="205.33">&#x2022;</tspan></text>
</g>
<clipPath id="cp215">
<path transform="matrix(1,0,0,-1,0,842)" d="M .000008866 0 L 595 0 L 595 842 L .000008866 842 Z " fill-rule="evenodd"/>
</clipPath>
<g clip-path="url(#cp215)">
<text xml:space="preserve" transform="matrix(1 0 -0 1 0 842)" font-size="12" font-family="ArialMT"><tspan y="-599.67" x="210.85"> </tspan></text>
</g>
<clipPath id="cp216">
<path transform="matrix(1,0,0,-1,0,842)" d="M .000008866 0 L 595 0 L 595 842 L .000008866 842 Z " fill-rule="evenodd"/>
</clipPath>
<g clip-path="url(#cp216)">
<text xml:space="preserve" transform="matrix(1 0 -0 1 0 842)" font-size="12" font-family="Calibri"><tspan y="-599.67" x="223.35 226.37401 232.602 238.086 244.062 248.826 252.84601 255.606 261.822">Investing</tspan></text>
</g>
<clipPath id="cp217">
<path transform="matrix(1,0,0,-1,0,842)" d="M .000008866 0 L 595 0 L 595 842 L .000008866 842 Z " fill-rule="evenodd"/>
</clipPath>
<g clip-path="url(#cp217)">
<text xml:space="preserve" transform="matrix(1 0 -0 1 0 842)" font-size="12" font-family="Calibri"><tspan y="-599.67" x="267.63"> </tspan></text>
</g>
</g>
<g id="Layer-1" data-name="P">
<clipPath id="cp218">
<path transform="matrix(1,0,0,-1,0,842)" d="M .000008866 0 L 595 0 L 595 842 L .000008866 842 Z " fill-rule="evenodd"/>
</clipPath>
<g clip-path="url(#cp218)">
<text xml:space="preserve" transform="matrix(1 0 -0 1 0 842)" font-size="16" font-family="Calibri" font-weight="bold"><tspan y="-581.17" x="56.775"> </tspan></text>
</g>
</g>
<g id="Layer-1" data-name="P">
<clipPath id="cp219">
<path transform="matrix(1,0,0,-1,0,842)" d="M .000008866 0 L 595 0 L 595 842 L .000008866 842 Z " fill-rule="evenodd"/>
</clipPath>
<g clip-path="url(#cp219)">
<text xml:space="preserve" transform="matrix(1 0 -0 1 0 842)" font-size="16" font-family="Calibri"><tspan y="-561.67" x="122.05"> </tspan></text>
</g>
</g>
<g id="Layer-1" data-name="P">
<clipPath id="cp220">
<path transform="matrix(1,0,0,-1,0,842)" d="M .000008866 0 L 595 0 L 595 842 L .000008866 842 Z " fill-rule="evenodd"/>
</clipPath>
<g clip-path="url(#cp220)">
<text xml:space="preserve" transform="matrix(1 0 -0 1 0 842)" font-size="12" font-family="Calibri"><tspan y="-545.93" x="56.775"> </tspan></text>
</g>
</g>
</g>
</g>
</svg>
