<?xml version="1.0" standalone="no"?>
<!DOCTYPE svg PUBLIC "-//W3C//DTD SVG 20010904//EN"
 "http://www.w3.org/TR/2001/REC-SVG-20010904/DTD/svg10.dtd">
<svg version="1.0" xmlns="http://www.w3.org/2000/svg"
 width="1200.000000pt" height="713.000000pt" viewBox="0 0 1200.000000 713.000000"
 preserveAspectRatio="xMidYMid meet">

<g transform="translate(0.000000,713.000000) scale(0.100000,-0.100000)"
fill="#000000" stroke="none">
<path d="M2730 4775 c-8 -2 -49 -9 -90 -15 -165 -27 -374 -116 -510 -219 -84
-63 -224 -209 -276 -286 -93 -138 -157 -288 -190 -445 -23 -106 -26 -361 -5
-465 59 -300 226 -568 468 -749 147 -110 304 -180 498 -222 109 -23 331 -23
447 -1 445 88 793 393 932 819 48 146 60 240 53 426 -4 113 -11 180 -27 237
-119 456 -452 784 -910 895 -78 19 -344 37 -390 25z m-220 -835 l0 -170 340 0
340 0 0 170 0 170 80 0 80 0 0 -545 0 -546 -77 3 -78 3 -3 168 -2 167 -340 0
-340 0 0 -170 0 -170 -80 0 -80 0 0 545 0 545 80 0 80 0 0 -170z"/>
<path d="M2510 3565 l0 -85 340 0 340 0 0 85 0 85 -340 0 -340 0 0 -85z"/>
<path d="M7250 3910 l0 -230 -52 40 c-71 54 -140 73 -243 68 -144 -7 -247 -77
-309 -208 -26 -55 -31 -79 -34 -162 -7 -168 49 -292 164 -365 70 -44 118 -57
209 -57 91 0 164 27 224 82 18 18 35 32 37 32 2 0 4 -22 4 -50 l0 -50 75 0 75
0 0 565 0 565 -75 0 -75 0 0 -230z m-162 -274 c92 -33 150 -111 159 -215 15
-162 -86 -281 -238 -281 -146 1 -241 99 -242 250 0 71 26 146 66 188 59 64
169 88 255 58z"/>
<path d="M4570 3555 l0 -545 80 0 80 0 0 234 0 235 33 3 c17 2 161 2 320 0
l287 -3 0 -234 0 -235 80 0 80 0 0 545 0 545 -80 0 -80 0 0 -230 0 -230 -320
0 -320 0 0 230 0 230 -80 0 -80 0 0 -545z"/>
<path d="M5983 3775 c-225 -70 -336 -337 -232 -560 30 -64 120 -154 184 -184
207 -96 481 -1 539 187 7 21 5 22 -64 22 -69 0 -74 -2 -115 -38 -52 -45 -100
-62 -182 -62 -68 0 -115 16 -163 57 -35 29 -80 113 -80 151 l0 22 311 0 310 0
-6 48 c-25 185 -121 313 -268 357 -61 18 -177 18 -234 0z m178 -125 c54 -15
101 -51 126 -95 13 -22 23 -43 23 -47 0 -5 -97 -8 -215 -8 -118 0 -215 3 -215
7 0 18 52 92 76 107 63 42 137 55 205 36z"/>
<path d="M7843 3772 c-146 -52 -239 -174 -258 -339 -18 -162 69 -324 213 -397
140 -71 344 -49 460 49 33 28 92 119 92 143 0 8 -21 12 -71 12 -70 0 -73 -1
-114 -39 -24 -22 -60 -44 -81 -50 -51 -14 -142 -14 -185 0 -76 26 -140 101
-154 182 l-7 37 311 0 311 0 0 24 c0 51 -22 134 -50 192 -36 74 -101 136 -178
172 -76 35 -212 42 -289 14z m235 -140 c39 -20 102 -93 102 -118 0 -12 -36
-14 -214 -14 l-215 0 10 29 c13 38 89 108 126 117 15 3 33 8 38 10 23 9 119
-6 153 -24z"/>
<path d="M9464 3781 c-97 -24 -196 -108 -241 -209 -38 -82 -44 -230 -13 -321
57 -169 173 -254 350 -254 99 -1 153 19 214 77 22 20 40 36 41 36 2 0 2 -21 2
-47 l0 -48 76 -3 77 -3 0 381 0 380 -78 0 -77 0 3 -45 c2 -25 2 -45 -1 -45 -2
0 -22 16 -43 35 -70 64 -200 92 -310 66z m191 -142 c97 -27 175 -158 161 -273
-8 -74 -53 -155 -104 -191 -83 -57 -218 -44 -292 28 -87 85 -98 254 -23 355
57 76 159 108 258 81z"/>
<path d="M8845 3771 c-48 -12 -111 -48 -134 -77 l-21 -27 0 52 0 51 -80 0 -80
0 0 -380 0 -380 80 0 80 0 0 246 c0 205 3 252 16 280 33 68 118 94 313 94
l116 0 -3 75 -4 75 -126 -1 c-70 -1 -140 -4 -157 -8z"/>
<path d="M10120 3760 c0 -5 9 -10 20 -10 17 0 20 -7 20 -45 0 -25 5 -45 10
-45 6 0 10 20 10 45 0 38 3 45 20 45 11 0 20 5 20 10 0 6 -22 10 -50 10 -27 0
-50 -4 -50 -10z"/>
<path d="M10246 3763 c-10 -10 -7 -103 4 -103 6 0 10 17 11 38 l1 37 16 -37
c10 -21 21 -38 25 -38 5 0 16 19 25 43 l17 42 6 -50 6 -50 1 63 c1 34 -2 62
-6 62 -4 0 -18 -19 -29 -42 l-21 -43 -16 37 c-17 39 -29 52 -40 41z"/>
</g>
</svg>
