<?xml version="1.0" standalone="no"?>
<!DOCTYPE svg PUBLIC "-//W3C//DTD SVG 20010904//EN"
 "http://www.w3.org/TR/2001/REC-SVG-20010904/DTD/svg10.dtd">
<svg version="1.0" xmlns="http://www.w3.org/2000/svg"
 width="225.000000pt" height="225.000000pt" viewBox="0 0 225.000000 225.000000"
 preserveAspectRatio="xMidYMid meet">

<g transform="translate(0.000000,225.000000) scale(0.100000,-0.100000)"
fill="#000000" stroke="none">
<path d="M991 2239 c-329 -41 -626 -227 -808 -506 -234 -359 -240 -823 -15
-1197 55 -91 195 -244 289 -314 182 -137 438 -222 668 -222 230 0 486 85 668
222 99 74 235 223 294 323 186 312 211 687 70 1022 -98 233 -317 461 -545 569
-187 88 -425 128 -621 103z m-181 -769 l0 -160 315 0 315 0 0 160 0 160 75 0
75 0 0 -505 0 -505 -75 0 -75 0 0 155 0 155 -315 0 -315 0 0 -155 0 -155 -75
0 -75 0 0 505 0 505 75 0 75 0 0 -160z"/>
<path d="M810 1120 l0 -80 315 0 315 0 0 80 0 80 -315 0 -315 0 0 -80z"/>
</g>
</svg>
