<?xml version="1.0" standalone="no"?>
<!DOCTYPE svg PUBLIC "-//W3C//DTD SVG 20010904//EN"
 "http://www.w3.org/TR/2001/REC-SVG-20010904/DTD/svg10.dtd">
<svg version="1.0" xmlns="http://www.w3.org/2000/svg"
 width="800.000000pt" height="578.000000pt" viewBox="0 0 800.000000 578.000000"
 preserveAspectRatio="xMidYMid meet">

<g transform="translate(0.000000,578.000000) scale(0.100000,-0.100000)"
fill="#000000" stroke="none">
<path d="M2027 2822 c1 -2119 1 -2100 40 -2175 36 -70 129 -161 236 -231 48
-31 89 -56 91 -56 2 0 50 -22 107 -49 107 -51 242 -99 364 -131 39 -10 95 -25
125 -33 159 -41 496 -95 715 -114 105 -9 828 -8 960 1 50 4 122 11 160 16 39
5 111 14 160 21 98 13 351 60 455 85 73 18 326 100 352 114 10 6 23 10 29 10
13 0 193 89 249 123 127 76 221 173 274 282 19 39 19 86 20 2118 1 1676 -1
2074 -11 2060 -7 -9 -13 -20 -13 -25 0 -12 -30 -48 -97 -115 -132 -134 -370
-256 -658 -338 -33 -9 -71 -21 -85 -25 -14 -4 -43 -12 -65 -18 -37 -10 -68
-17 -180 -42 -114 -26 -366 -59 -625 -82 -174 -16 -641 -15 -860 2 -188 14
-384 37 -495 59 -27 5 -77 14 -110 20 -63 10 -166 33 -225 50 -19 5 -46 13
-60 16 -46 13 -237 74 -266 86 -16 6 -38 15 -49 19 -222 86 -443 246 -507 367
-13 24 -25 43 -28 43 -3 0 -4 -926 -3 -2058z m1273 270 c81 -15 129 -28 145
-42 12 -10 15 -40 15 -144 0 -72 -4 -137 -9 -144 -6 -11 -19 -7 -62 17 -111
62 -298 83 -368 40 -58 -35 -66 -48 -66 -109 1 -88 25 -111 238 -219 232 -118
317 -226 317 -404 0 -129 -38 -220 -125 -299 -39 -35 -139 -85 -201 -100 -62
-15 -374 -15 -434 -1 -78 20 -139 52 -146 77 -3 12 -4 83 -2 157 3 145 11 161
55 120 30 -28 143 -87 184 -96 19 -4 75 -9 124 -11 80 -4 95 -2 130 18 49 28
80 84 70 128 -14 62 -68 107 -218 182 -43 22 -102 54 -131 73 -59 37 -156 132
-156 152 0 7 -4 13 -9 13 -5 0 -19 32 -31 70 -19 58 -22 84 -17 143 8 92 19
128 57 188 91 141 258 211 485 204 55 -2 125 -8 155 -13z m1147 7 c27 -6 73
-18 103 -27 342 -96 529 -514 413 -922 -53 -184 -163 -322 -328 -407 l-49 -26
50 -46 c58 -52 293 -269 312 -288 6 -6 12 -19 12 -27 0 -14 -25 -16 -200 -16
l-201 0 -47 52 c-26 29 -74 82 -107 118 -33 36 -78 86 -100 110 -35 40 -45 45
-95 52 -96 12 -140 25 -223 66 -129 64 -232 174 -293 312 -19 43 -28 69 -53
166 -14 54 -14 250 0 311 49 209 114 325 241 430 143 117 397 181 565 142z
m1083 -579 l5 -565 245 -2 c135 -1 249 -2 253 -3 4 0 6 -60 5 -132 l-3 -133
-395 -3 c-217 -1 -405 0 -417 3 l-23 5 0 694 c0 381 3 696 7 700 4 3 77 5 162
4 l156 -3 5 -565z"/>
<path d="M4243 2810 c-55 -11 -124 -52 -161 -95 -62 -70 -112 -217 -112 -330
0 -114 52 -269 112 -336 71 -78 214 -119 309 -88 60 19 117 51 141 78 36 43
68 89 68 101 0 6 4 18 9 28 24 47 31 100 31 225 0 80 -4 138 -10 142 -5 3 -10
16 -10 29 0 65 -89 185 -166 224 -48 25 -150 35 -211 22z"/>
</g>
</svg>
