<?xml version="1.0" standalone="no"?>
<!DOCTYPE svg PUBLIC "-//W3C//DTD SVG 20010904//EN"
 "http://www.w3.org/TR/2001/REC-SVG-20010904/DTD/svg10.dtd">
<svg version="1.0" xmlns="http://www.w3.org/2000/svg"
 width="512.000000pt" height="512.000000pt" viewBox="0 0 512.000000 512.000000"
 preserveAspectRatio="xMidYMid meet">

<g transform="translate(0.000000,512.000000) scale(0.100000,-0.100000)"
fill="#000000" stroke="none">
<path d="M2315 5109 c-800 -83 -1501 -518 -1927 -1196 -487 -774 -516 -1777
-75 -2578 200 -364 487 -676 841 -913 238 -159 600 -311 876 -366 214 -43 295
-51 530 -51 236 0 333 10 532 51 880 184 1615 842 1898 1702 92 278 125 491
125 802 0 301 -32 513 -116 775 -124 390 -330 728 -622 1024 -399 404 -893
653 -1462 737 -123 18 -478 26 -600 13z m460 -1046 c27 -79 111 -249 144 -291
14 -20 39 -27 152 -48 331 -61 525 -139 702 -282 64 -52 172 -170 164 -179 -2
-2 -62 -12 -133 -22 -152 -23 -348 -67 -528 -119 l-129 -37 -2 -215 c-2 -297
-35 -455 -157 -763 l-51 -129 -71 7 c-275 26 -549 98 -696 182 -197 113 -236
251 -111 393 l31 35 -25 -49 c-25 -48 -32 -86 -17 -86 8 0 295 72 300 76 2 1
-5 28 -17 59 -12 31 -21 76 -21 100 0 25 -2 45 -5 45 -3 0 -23 -11 -45 -25
-22 -14 -40 -23 -40 -20 0 3 53 61 118 129 179 187 257 318 283 475 31 186
-68 381 -267 528 -35 26 -64 49 -64 52 1 17 156 113 294 182 88 43 160 79 161
79 1 0 15 -35 30 -77z m242 -2070 c-3 -10 -5 -4 -5 12 0 17 2 24 5 18 2 -7 2
-21 0 -30z m62 -8 c0 -5 -6 -1 -14 9 -8 11 -15 24 -15 30 0 5 7 1 15 -10 8
-10 14 -23 14 -29z m20 18 c0 -25 -1 -26 -9 -8 -12 27 -12 35 0 35 6 0 10 -12
9 -27z m-1339 -18 c0 -8 -9 -15 -20 -15 -13 0 -20 -7 -20 -20 0 -11 7 -20 15
-20 8 0 15 -4 15 -10 0 -5 -7 -10 -15 -10 -12 0 -15 -14 -15 -65 0 -51 -3 -65
-15 -65 -12 0 -15 14 -15 64 0 42 -4 66 -12 69 -10 4 -10 8 -2 14 6 4 15 19
19 33 4 14 13 28 19 32 19 13 46 9 46 -7z m-1056 -81 c15 -47 29 -84 31 -82 2
2 17 39 33 83 23 62 34 81 51 83 20 3 21 0 21 -102 0 -86 -3 -106 -15 -106
-11 0 -15 18 -17 83 l-3 82 -29 -83 c-36 -106 -50 -105 -87 3 l-27 80 -1 -82
c-1 -67 -4 -83 -16 -83 -12 0 -15 18 -15 105 0 103 0 105 23 105 20 0 26 -11
51 -86z m204 74 c-6 -18 -28 -21 -28 -4 0 9 7 16 16 16 9 0 14 -5 12 -12z
m892 -18 c0 -11 7 -23 15 -26 8 -4 15 -10 15 -15 0 -5 -7 -9 -15 -9 -22 0 -21
-96 1 -108 22 -12 9 -32 -16 -25 -17 5 -20 14 -20 68 0 42 -4 65 -12 68 -10 4
-10 7 0 18 6 7 12 21 12 31 0 10 5 18 10 18 6 0 10 -9 10 -20z m141 -7 c11
-15 11 -16 -1 -5 -8 6 -25 12 -39 11 -24 -1 -22 -2 18 -15 10 -3 10 -8 2 -18
-8 -10 -8 -16 2 -25 8 -6 18 -7 23 -3 4 4 2 -1 -5 -10 -17 -23 -54 -23 -72 -1
-10 11 -10 14 -1 9 8 -5 12 2 12 24 0 22 -4 29 -12 24 -9 -5 -9 -2 1 9 18 22
55 22 72 0z m-890 -32 c19 -15 21 -22 12 -32 -10 -10 -14 -9 -19 4 -8 22 -60
23 -68 1 -8 -20 -8 -58 0 -78 8 -20 60 -21 68 -1 7 19 26 20 26 1 0 -18 -38
-46 -63 -46 -10 0 -29 11 -42 25 -34 33 -34 87 0 120 29 30 55 32 86 6z m126
2 c2 -6 -6 -13 -19 -15 -21 -3 -23 -9 -26 -65 -2 -47 -7 -63 -17 -63 -12 0
-15 16 -15 76 0 60 3 75 13 71 8 -3 20 -1 28 4 17 10 31 7 36 -8z m117 6 c85
-39 31 -183 -57 -150 -52 20 -64 95 -22 136 27 28 42 30 79 14z m164 -5 c25
-17 29 -34 7 -34 -8 0 -15 5 -15 10 0 6 -13 10 -30 10 -44 0 -38 -27 9 -40 47
-12 65 -32 56 -60 -6 -20 -41 -40 -70 -40 -22 0 -59 36 -51 49 6 9 12 8 26 -4
21 -19 65 -16 65 4 0 8 -19 21 -42 28 -52 18 -66 48 -33 75 27 22 49 23 78 2z
m156 5 c85 -39 31 -183 -57 -150 -52 20 -64 95 -22 136 27 28 42 30 79 14z
m-704 -74 c0 -60 -3 -75 -15 -75 -12 0 -15 15 -15 75 0 60 3 75 15 75 12 0 15
-15 15 -75z m23 -180 c12 -5 17 -18 17 -42 0 -32 -2 -35 -22 -28 -125 38 -218
12 -218 -61 0 -38 17 -54 135 -122 100 -59 129 -97 122 -165 -5 -52 -30 -87
-82 -115 -37 -20 -165 -22 -217 -4 -35 13 -38 17 -38 52 l0 39 48 -22 c92 -41
203 -22 214 37 10 50 -14 78 -116 136 -113 63 -140 94 -140 159 0 71 37 114
124 142 27 9 144 5 173 -6z m503 -20 c82 -48 124 -131 124 -244 0 -84 -12
-127 -53 -187 -21 -32 -48 -56 -80 -72 l-49 -24 24 -25 c35 -38 72 -53 128
-53 l51 0 -3 -32 c-3 -31 -6 -33 -43 -36 -66 -6 -114 15 -179 77 -51 48 -70
60 -118 70 -69 15 -135 69 -169 138 -18 39 -23 65 -23 133 0 141 55 232 166
272 72 25 163 18 224 -17z m1094 20 c6 -3 10 -22 10 -42 0 -29 -3 -34 -17 -28
-40 15 -106 22 -139 15 -49 -11 -74 -37 -74 -76 0 -42 19 -60 122 -115 89 -48
128 -90 134 -146 14 -115 -115 -187 -270 -152 l-61 14 -3 43 -3 43 28 -14 c79
-41 176 -44 214 -6 11 11 19 33 19 52 0 42 -31 72 -128 122 -40 21 -83 51 -97
67 -28 33 -40 85 -30 125 9 37 66 89 112 101 38 11 164 9 183 -3z m-790 -240
l0 -245 110 0 110 0 0 -30 0 -30 -145 0 -145 0 0 275 0 275 35 0 35 0 0 -245z
m1154 81 c51 -21 80 -69 84 -143 l4 -63 -136 0 c-151 0 -149 1 -122 -65 27
-63 119 -84 196 -45 l40 20 0 -29 c0 -36 -14 -48 -77 -62 -141 -33 -242 47
-243 192 0 149 128 248 254 195z m394 -25 c3 -32 2 -33 -24 -28 -40 7 -71 -8
-94 -45 -17 -28 -20 -51 -20 -160 l0 -128 -35 0 -35 0 0 195 0 195 35 0 c32 0
35 -3 35 -29 l0 -29 35 35 c28 28 41 34 67 31 29 -3 33 -7 36 -37z m712 20
c46 -24 80 -89 80 -153 l0 -48 -135 0 c-129 0 -135 -1 -135 -20 0 -29 26 -76
52 -94 28 -20 98 -20 145 -1 45 19 43 20 43 -13 0 -36 -32 -53 -115 -59 -80
-6 -139 23 -172 87 -42 79 -25 220 33 272 57 50 142 63 204 29z m380 -17 c0
-32 -3 -36 -21 -31 -33 9 -73 -11 -94 -46 -16 -26 -21 -55 -23 -159 l-4 -128
-34 0 -34 0 0 195 0 195 35 0 c34 0 35 -1 35 -37 l0 -38 19 29 c24 36 56 55
94 56 24 0 27 -3 27 -36z m-920 -133 l55 -159 55 157 56 156 37 3 37 3 -18
-49 c-11 -28 -45 -116 -77 -196 l-59 -146 -35 0 -36 0 -49 133 c-27 72 -59
160 -72 195 l-24 62 38 0 37 0 55 -159z m1002 135 c3 5 4 4 2 -2 -1 -6 2 -17
7 -23 6 -8 5 -8 -3 -1 -7 6 -16 6 -23 0 -9 -8 -11 -3 -7 16 3 16 7 22 12 14 4
-7 10 -8 12 -4z"/>
<path d="M2655 4051 c-75 -29 -135 -61 -135 -72 0 -9 105 -27 202 -35 l76 -7
-34 69 c-19 37 -36 69 -37 70 -1 2 -34 -10 -72 -25z"/>
<path d="M2505 3927 c20 -31 92 -92 129 -108 23 -11 35 -8 103 27 l78 38 -50
9 c-57 9 -219 43 -254 53 -23 7 -23 7 -6 -19z"/>
<path d="M2399 3909 c-16 -17 -29 -34 -29 -38 0 -16 92 -43 126 -37 l35 7 -40
42 c-23 23 -41 45 -41 49 0 17 -24 6 -51 -23z"/>
<path d="M2761 3828 c-55 -27 -61 -32 -45 -41 24 -13 178 -23 173 -11 -8 19
-54 84 -59 83 -3 0 -34 -14 -69 -31z"/>
<path d="M2449 3782 c18 -15 53 -51 77 -80 50 -61 53 -57 23 24 -17 45 -27 59
-55 70 -18 8 -44 14 -56 14 -21 -1 -21 -3 11 -28z"/>
<path d="M2575 3753 c3 -10 16 -51 28 -91 l21 -72 41 39 c22 21 62 53 89 70
48 29 48 31 25 40 -27 10 -155 31 -189 31 -17 0 -21 -4 -15 -17z"/>
<path d="M2785 3685 c-27 -19 -67 -52 -89 -74 l-38 -39 96 -31 c53 -17 97 -31
99 -31 3 0 -11 176 -15 197 -2 6 -24 -3 -53 -22z"/>
<path d="M2868 3715 c-5 -5 21 -197 27 -204 3 -2 35 19 72 47 37 27 94 64 126
82 31 17 57 33 57 35 0 9 -274 47 -282 40z"/>
<path d="M3120 3619 c-30 -16 -86 -52 -124 -81 l-70 -51 48 -18 c26 -11 64
-30 84 -44 26 -17 39 -21 48 -14 32 27 101 239 78 239 -5 0 -34 -14 -64 -31z"/>
<path d="M3215 3613 c-8 -49 -43 -159 -62 -197 -12 -23 -12 -28 -2 -23 8 3 57
24 109 48 52 23 137 57 189 75 78 26 91 33 75 42 -23 12 -227 77 -271 87 -31
6 -32 5 -38 -32z"/>
<path d="M3445 3476 c-71 -24 -165 -58 -207 -75 l-76 -33 72 -72 c41 -40 77
-82 81 -95 3 -12 12 -20 18 -18 20 6 266 338 250 336 -4 0 -66 -19 -138 -43z"/>
<path d="M2650 3414 l0 -95 25 19 c52 41 137 123 133 128 -5 4 -142 44 -153
44 -3 0 -5 -43 -5 -96z"/>
<path d="M3583 3462 c-29 -51 -138 -199 -176 -239 -17 -18 -26 -33 -21 -33 6
0 68 13 140 29 71 17 178 37 239 46 60 9 111 18 113 20 3 2 -24 33 -60 69 -61
61 -179 146 -202 146 -6 0 -21 -17 -33 -38z"/>
<path d="M2745 3345 c-55 -52 -93 -95 -85 -95 9 0 33 -12 53 -26 21 -14 40
-24 41 -22 2 1 15 35 30 73 16 39 37 91 47 118 10 26 18 47 16 47 -1 -1 -47
-43 -102 -95z"/>
<path d="M2827 3308 c-31 -67 -56 -122 -54 -124 4 -4 245 171 248 181 3 11
-96 65 -121 65 -11 0 -35 -40 -73 -122z"/>
<path d="M2916 3244 c-107 -67 -136 -90 -131 -103 4 -9 12 -43 19 -75 l12 -59
95 124 c133 173 152 199 147 199 -2 0 -66 -39 -142 -86z"/>
<path d="M2991 3178 c-62 -76 -111 -141 -109 -143 7 -7 408 125 408 134 0 15
-110 111 -149 130 l-36 18 -114 -139z"/>
<path d="M2623 3183 c-3 -10 -14 -38 -24 -62 l-19 -43 28 18 c15 9 42 27 60
39 l33 23 -27 21 c-33 26 -43 26 -51 4z"/>
<path d="M2617 3005 c-71 -74 -126 -135 -123 -135 4 0 37 15 74 34 37 18 101
46 143 61 l75 28 -7 52 c-6 44 -23 96 -32 95 -1 0 -60 -61 -130 -135z"/>
<path d="M2553 3031 c-6 -10 -32 -44 -58 -75 l-46 -57 65 43 c64 42 78 64 58
95 -6 9 -11 7 -19 -6z"/>
<path d="M3030 3011 l-65 -18 40 -17 c22 -9 57 -30 78 -47 l37 -30 0 34 c0 43
-11 97 -19 96 -3 0 -35 -9 -71 -18z"/>
<path d="M2896 2958 c-18 -59 -57 -240 -53 -244 7 -7 257 128 257 139 0 17
-57 61 -115 88 -66 32 -84 35 -89 17z"/>
<path d="M2748 2912 c-49 -19 -88 -39 -88 -44 0 -31 131 -155 150 -143 10 6
33 163 29 195 l-4 26 -87 -34z"/>
<path d="M2528 2714 c-124 -182 -117 -168 -77 -159 86 18 329 117 329 134 0 4
-13 14 -29 24 -29 17 -85 75 -112 116 -15 24 -16 24 -111 -115z"/>
<path d="M2460 2797 c-52 -22 -97 -41 -98 -43 -2 -1 -6 -20 -9 -42 -5 -41 26
-132 46 -132 20 0 173 243 160 253 -2 2 -47 -14 -99 -36z"/>
<path d="M2973 2747 c-68 -34 -123 -64 -123 -68 0 -22 231 -112 246 -96 8 8
24 127 24 180 0 31 -4 47 -12 46 -7 0 -68 -28 -135 -62z"/>
<path d="M2680 2611 c-58 -26 -135 -58 -172 -70 -57 -19 -66 -25 -59 -39 16
-30 85 -93 130 -120 l44 -26 29 35 c88 103 176 271 141 269 -5 -1 -55 -23
-113 -49z"/>
<path d="M2820 2635 c0 -27 -58 -144 -103 -208 -23 -34 -46 -67 -50 -74 -8
-13 17 -2 233 97 74 34 146 67 160 72 24 10 23 11 -20 24 -25 7 -81 34 -124
59 -87 49 -96 52 -96 30z"/>
<path d="M2195 2469 c-66 -15 -129 -31 -141 -33 -19 -5 -20 -10 -13 -55 4 -27
12 -58 18 -69 12 -22 78 -82 90 -82 26 0 172 188 197 253 8 22 -2 21 -151 -14z"/>
<path d="M2367 2441 c-25 -46 -83 -126 -142 -199 l-27 -33 28 7 c67 16 253 74
297 93 l49 21 -61 46 c-33 25 -73 61 -89 79 l-27 34 -28 -48z"/>
<path d="M2970 2450 c-52 -22 -139 -59 -193 -81 -85 -36 -96 -43 -80 -54 34
-23 109 -46 210 -64 l103 -18 29 91 c34 107 47 166 35 166 -5 0 -52 -19 -104
-40z"/>
<path d="M2525 2284 c-38 -14 -123 -40 -188 -58 -131 -36 -130 -34 -32 -84 87
-43 141 -56 164 -40 44 31 141 170 141 203 0 8 -10 5 -85 -21z"/>
<path d="M2619 2243 c-15 -27 -47 -74 -73 -105 -37 -46 -43 -58 -29 -58 55 0
392 97 417 120 4 5 -18 13 -50 19 -33 7 -93 23 -134 37 -41 13 -82 27 -90 30
-10 3 -24 -11 -41 -43z"/>
<path d="M2825 2134 c-71 -24 -159 -52 -195 -62 l-65 -18 105 -17 c58 -9 135
-19 173 -23 l67 -6 29 63 c35 80 43 109 28 108 -7 -1 -70 -21 -142 -45z"/>
<path d="M1895 1930 c4 -6 11 -8 16 -5 14 9 11 15 -7 15 -8 0 -12 -5 -9 -10z"/>
<path d="M1886 1895 c-4 -11 2 -15 21 -15 21 0 24 2 13 15 -7 8 -16 15 -20 15
-4 0 -10 -7 -14 -15z"/>
<path d="M1232 1898 c-17 -17 -15 -73 2 -88 42 -34 92 22 68 75 -13 27 -49 34
-70 13z"/>
<path d="M1552 1898 c-17 -17 -15 -73 2 -88 42 -34 92 22 68 75 -13 27 -49 34
-70 13z"/>
<path d="M1215 1601 c-67 -41 -95 -100 -95 -198 0 -78 22 -133 66 -175 52 -48
136 -57 206 -22 122 62 128 311 9 391 -44 30 -141 32 -186 4z"/>
<path d="M2790 1466 c-34 -11 -63 -44 -75 -83 -6 -23 -5 -23 94 -23 l101 0 0
29 c0 35 -32 77 -64 83 -13 3 -38 0 -56 -6z"/>
<path d="M3894 1472 c-28 -4 -71 -50 -79 -84 l-7 -28 101 0 c95 0 101 1 101
20 0 18 -26 80 -33 80 -1 0 -16 4 -32 8 -17 4 -40 6 -51 4z"/>
</g>
</svg>
