<?xml version="1.0" standalone="no"?>
<!DOCTYPE svg PUBLIC "-//W3C//DTD SVG 20010904//EN"
 "http://www.w3.org/TR/2001/REC-SVG-20010904/DTD/svg10.dtd">
<svg version="1.0" xmlns="http://www.w3.org/2000/svg"
 width="750.000000pt" height="732.000000pt" viewBox="0 0 750.000000 732.000000"
 preserveAspectRatio="xMidYMid meet">

<g transform="translate(0.000000,732.000000) scale(0.100000,-0.100000)"
fill="#000000" stroke="none">
<path d="M375 6425 c-7 -33 -10 -1003 -10 -2790 0 -2631 1 -2743 18 -2805 59
-205 192 -367 382 -460 166 -82 -126 -75 2950 -75 2641 0 2743 1 2813 19 235
60 443 253 511 475 35 116 33 128 -8 46 -88 -178 -232 -304 -426 -372 l-80
-28 -2740 -3 c-3056 -3 -2820 -8 -2980 67 -147 69 -266 185 -336 326 -81 164
-73 -136 -79 2920 -3 1860 -8 2714 -15 2680z"/>
<path d="M3465 5762 c-21 -22 7 -59 158 -207 225 -220 278 -303 318 -499 74
-356 -120 -720 -616 -1154 -155 -135 -161 -141 -95 -100 270 168 623 336 1030
489 447 169 1247 385 1655 449 109 17 108 16 88 48 -42 66 -146 193 -203 246
-215 199 -528 337 -979 431 -113 24 -192 37 -531 90 -563 89 -730 127 -786
180 -19 18 -36 30 -39 27z m274 -165 l74 -22 39 -115 c21 -63 37 -119 35 -124
-2 -6 -21 17 -42 50 -22 32 -79 98 -127 147 -55 54 -81 87 -70 86 9 0 50 -10
91 -22z m389 -83 c56 -10 102 -21 102 -24 0 -4 -28 -24 -62 -45 -35 -21 -96
-65 -136 -98 -40 -32 -75 -58 -76 -56 -2 2 -19 47 -36 99 -18 52 -41 111 -51
131 -10 20 -16 39 -13 42 3 2 42 -3 87 -13 45 -10 128 -26 185 -36z m180 -90
c18 -65 28 -274 14 -274 -6 0 -46 11 -89 24 -43 13 -111 34 -150 45 -40 12
-73 26 -73 30 0 20 258 232 275 227 6 -1 16 -25 23 -52z m223 20 c107 -19 209
-38 227 -41 47 -8 39 -25 -26 -52 -74 -32 -224 -115 -285 -158 -27 -19 -50
-33 -52 -31 -1 2 -8 42 -14 89 -10 76 -22 129 -46 207 -4 12 -5 22 -3 22 2 0
92 -16 199 -36z m309 -185 c-22 -68 -118 -266 -132 -275 -5 -3 -32 7 -61 23
-29 16 -87 45 -130 63 -42 19 -76 37 -75 41 5 12 182 126 303 196 107 61 110
62 113 39 2 -13 -6 -52 -18 -87z m216 65 c101 -30 340 -118 353 -130 10 -9
-13 -16 -140 -50 -132 -34 -331 -99 -418 -136 -24 -10 -46 -16 -49 -14 -2 3 9
40 27 83 17 42 41 123 54 180 17 79 26 103 38 103 9 0 70 -16 135 -36z m-916
-209 c63 -19 117 -38 122 -43 4 -4 -29 -40 -74 -79 -46 -40 -105 -94 -133
-122 -27 -28 -52 -51 -56 -51 -4 0 -7 55 -6 123 0 67 -3 141 -7 165 -7 40 -7
42 17 42 13 0 75 -16 137 -35z m1320 29 c0 -15 -383 -514 -394 -514 -2 0 -26
31 -54 69 -29 38 -86 101 -129 141 -73 68 -76 73 -58 86 10 8 23 14 27 14 5 0
28 8 51 19 82 36 214 85 372 137 162 53 185 59 185 48z m128 -48 c40 -25 100
-66 135 -92 67 -52 227 -203 227 -215 0 -8 -9 -9 -185 -30 -123 -14 -330 -50
-488 -85 -65 -15 -121 -24 -124 -21 -3 3 22 32 56 63 82 76 196 229 251 337
25 48 47 87 50 87 3 0 38 -20 78 -44z m-1099 -121 c60 -30 112 -58 115 -63 3
-5 -32 -28 -77 -52 -45 -23 -122 -67 -171 -96 -78 -48 -106 -61 -106 -51 0 1
13 27 29 58 28 54 74 178 85 232 4 15 9 27 11 27 3 0 54 -25 114 -55z m-185 8
c-22 -92 -90 -251 -136 -316 l-20 -28 -41 38 c-23 21 -55 48 -72 61 l-30 22
58 55 c69 65 228 195 240 195 4 0 4 -12 1 -27z m507 -203 c46 -33 111 -84 144
-114 l60 -54 -75 -21 c-41 -12 -196 -61 -345 -110 -148 -49 -271 -88 -272 -87
-2 1 52 59 120 128 67 69 154 168 192 221 39 53 75 96 81 96 6 1 49 -26 95
-59z m-222 19 c-39 -73 -311 -418 -336 -427 -9 -2 -13 8 -13 31 0 41 -36 163
-51 172 -17 11 9 32 105 87 94 53 295 158 302 158 3 0 0 -9 -7 -21z m-557
-170 c26 -17 48 -34 47 -38 0 -7 -200 -153 -218 -159 -7 -2 -2 13 11 34 31 51
78 157 78 178 0 24 28 19 82 -15z m128 -128 c24 -35 50 -104 50 -137 0 -15 -8
-25 -22 -30 -53 -16 -260 -100 -347 -140 -52 -24 -96 -42 -98 -40 -3 2 36 36
85 75 86 68 292 274 292 292 0 18 19 8 40 -20z m-120 -10 c0 -4 -53 -59 -118
-122 -112 -109 -267 -228 -279 -215 -3 3 14 27 38 53 25 27 57 64 72 84 15 20
58 57 95 82 37 25 92 64 122 86 56 41 70 48 70 32z"/>
<path d="M2527 2853 c-21 -5 -47 -53 -47 -86 0 -16 -7 -26 -20 -30 -11 -3 -20
-12 -20 -21 0 -9 8 -16 20 -16 19 0 20 -7 20 -106 0 -104 0 -105 23 -102 21 3
22 7 23 103 l1 100 27 3 c34 4 32 35 -2 40 -29 4 -36 21 -23 55 8 20 18 27 36
27 18 0 25 5 25 20 0 20 -20 24 -63 13z"/>
<path d="M1217 2843 c-4 -3 -7 -15 -7 -25 0 -22 45 -26 53 -4 9 24 -28 47 -46
29z"/>
<path d="M787 2833 c-4 -3 -7 -82 -7 -175 l0 -168 25 0 25 0 0 122 c0 73 4
118 9 113 5 -6 22 -41 39 -80 61 -144 67 -156 81 -153 8 2 39 59 70 128 l56
125 3 -127 c2 -120 4 -128 22 -128 19 0 20 8 20 175 0 165 -1 175 -19 175 -26
0 -34 -12 -91 -141 -28 -63 -54 -117 -58 -121 -4 -4 -29 43 -56 105 -26 61
-54 122 -62 135 -14 21 -43 29 -57 15z"/>
<path d="M4568 2818 c7 -7 12 -27 12 -45 0 -18 5 -33 10 -33 6 0 10 16 10 35
0 19 5 35 10 35 6 0 10 5 10 10 0 6 -14 10 -32 10 -25 0 -29 -3 -20 -12z"/>
<path d="M4641 2778 c1 -43 3 -47 8 -23 l7 30 15 -28 15 -28 14 28 13 28 8
-25 c5 -20 7 -15 8 23 1 52 -12 56 -30 9 l-10 -26 -21 32 c-11 18 -22 32 -24
32 -2 0 -3 -24 -3 -52z"/>
<path d="M2657 2799 c-9 -6 -17 -20 -17 -33 0 -15 -7 -26 -20 -29 -11 -3 -20
-10 -20 -17 0 -7 9 -14 20 -17 18 -5 20 -14 20 -90 0 -76 2 -86 25 -108 26
-27 54 -32 73 -13 19 19 14 28 -12 28 -14 0 -27 3 -29 8 -3 4 -7 43 -8 87 l-4
80 30 5 c39 7 39 33 0 40 -25 5 -30 10 -27 32 3 31 -7 40 -31 27z"/>
<path d="M2795 2764 c-13 -14 -23 -35 -23 -47 2 -23 35 -67 51 -67 6 0 1 10
-11 23 -24 26 -29 66 -10 85 17 17 73 15 87 -2 15 -18 11 -68 -5 -73 -14 -5
-26 35 -13 42 16 10 -3 35 -27 35 -22 0 -24 -4 -23 -42 1 -24 3 -35 6 -25 4
17 6 17 23 2 10 -9 16 -23 13 -31 -9 -24 14 -15 37 13 55 70 -44 153 -105 87z
m57 -29 c0 -5 -5 -11 -11 -13 -6 -2 -11 4 -11 13 0 9 5 15 11 13 6 -2 11 -8
11 -13z"/>
<path d="M1215 2728 c-3 -8 -4 -63 -3 -124 3 -105 4 -109 26 -112 l23 -3 -3
123 c-3 108 -5 123 -21 126 -9 2 -19 -3 -22 -10z"/>
<path d="M1355 2707 c-35 -35 -41 -56 -36 -122 4 -42 17 -63 54 -85 54 -33
127 -21 127 21 0 16 -3 18 -19 9 -33 -17 -71 -11 -98 16 -22 22 -25 32 -20 72
7 62 35 86 95 79 39 -4 43 -3 40 17 -3 18 -11 21 -56 24 -49 3 -56 0 -87 -31z"/>
<path d="M1560 2615 c0 -118 1 -125 20 -125 18 0 20 7 20 76 0 98 18 134 68
134 15 0 22 6 22 20 0 24 -35 27 -67 5 -19 -13 -22 -13 -27 0 -3 8 -12 15 -21
15 -13 0 -15 -19 -15 -125z"/>
<path d="M1762 2727 c-40 -23 -57 -58 -57 -119 0 -51 4 -61 31 -89 66 -66 172
-41 203 47 19 53 8 109 -29 146 -24 23 -37 28 -77 28 -26 -1 -58 -6 -71 -13z
m89 -27 c5 0 18 -9 29 -20 28 -28 27 -98 -1 -134 -46 -58 -129 -16 -129 67 0
24 6 50 13 59 17 22 50 38 65 33 8 -3 18 -5 23 -5z"/>
<path d="M2012 2720 c-38 -36 -28 -91 22 -117 52 -26 67 -43 55 -64 -10 -20
-63 -27 -74 -9 -11 18 -25 10 -25 -15 0 -56 131 -38 146 20 10 39 -9 70 -57
96 -49 28 -56 40 -33 63 15 16 27 15 72 -2 10 -3 13 2 10 19 -3 21 -9 24 -48
27 -35 2 -50 -2 -68 -18z"/>
<path d="M2214 2706 c-31 -31 -34 -39 -34 -96 0 -54 3 -65 29 -90 52 -52 126
-52 177 1 26 27 29 37 29 95 0 61 -2 68 -33 95 -27 24 -41 29 -83 29 -45 0
-55 -4 -85 -34z m137 -23 c36 -31 28 -132 -11 -153 -90 -48 -165 77 -90 151
23 24 34 28 57 23 15 -4 35 -13 44 -21z"/>
<path d="M967 2390 c-137 -23 -227 -122 -227 -247 1 -114 46 -172 222 -281
119 -74 146 -97 172 -149 20 -41 20 -76 -1 -120 -42 -89 -225 -99 -352 -19
l-41 26 0 -69 0 -70 58 -22 c83 -33 245 -33 318 0 133 58 189 200 130 326 -29
64 -80 109 -200 180 -117 69 -155 100 -172 142 -63 151 106 254 291 178 33
-14 61 -25 63 -25 1 0 2 26 2 59 0 36 -5 63 -13 70 -14 11 -133 31 -177 30
-14 -1 -47 -5 -73 -9z"/>
<path d="M1720 2389 c-83 -14 -191 -71 -243 -129 -88 -98 -134 -249 -123 -405
10 -143 50 -238 132 -321 65 -64 141 -102 235 -117 l72 -11 90 -103 89 -103
80 0 80 0 -107 112 -107 112 34 12 c194 67 298 234 298 478 0 157 -42 269
-136 363 -62 63 -132 98 -224 112 -74 12 -93 12 -170 0z m236 -132 c66 -34
116 -92 146 -170 19 -53 23 -80 23 -182 0 -103 -4 -129 -24 -183 -61 -161
-232 -239 -408 -187 -250 74 -301 533 -76 694 69 50 110 61 203 58 68 -3 95
-9 136 -30z"/>
<path d="M3330 2381 c-111 -34 -190 -134 -190 -239 0 -99 66 -187 201 -266
103 -60 165 -109 190 -150 42 -68 10 -168 -61 -193 -82 -28 -208 -9 -292 44
l-38 23 0 -69 0 -69 38 -15 c68 -27 154 -40 226 -33 165 15 266 110 266 251 0
116 -58 185 -244 293 -62 37 -116 76 -132 97 -55 73 -37 168 41 213 34 20 51
22 120 19 71 -3 102 -11 168 -45 4 -2 7 24 7 58 0 60 0 61 -35 76 -37 15 -219
19 -265 5z"/>
<path d="M2397 2373 c-4 -3 -7 -217 -7 -475 l0 -468 250 0 250 0 0 50 0 50
-187 2 -188 3 -3 423 -2 422 -53 0 c-30 0 -57 -3 -60 -7z"/>
<path d="M4003 2120 c-178 -37 -281 -225 -244 -446 30 -178 156 -276 336 -261
82 7 128 19 173 47 29 18 32 24 32 70 0 27 -3 50 -6 50 -3 0 -18 -8 -32 -19
-42 -28 -120 -51 -179 -51 -121 0 -213 89 -213 208 l0 22 235 0 235 0 0 80 c0
175 -90 287 -245 303 -27 3 -69 2 -92 -3z m137 -112 c47 -25 74 -65 85 -130
l7 -38 -181 0 c-138 0 -181 3 -181 13 1 24 38 93 66 121 59 59 131 71 204 34z"/>
<path d="M5750 2121 c-59 -13 -115 -47 -163 -101 -60 -67 -87 -146 -87 -256 0
-254 152 -386 396 -345 38 7 87 22 109 34 34 19 40 28 43 61 5 64 0 67 -69 33
-105 -52 -220 -48 -289 10 -36 30 -70 103 -70 149 l0 34 235 0 235 0 0 67 c0
138 -64 258 -158 296 -47 19 -136 28 -182 18z m136 -112 c31 -14 48 -32 63
-62 21 -43 32 -106 19 -106 -5 -1 -84 -1 -178 -1 -195 0 -191 -2 -141 86 55
95 146 127 237 83z"/>
<path d="M6620 2110 c-25 -25 -27 -82 -4 -101 25 -21 93 -17 110 6 35 47 2
115 -56 115 -17 0 -39 -9 -50 -20z m92 -21 c17 -22 18 -30 8 -49 -15 -29 -31
-8 -23 30 4 20 -1 29 -19 38 -18 9 -19 11 -4 9 10 -1 28 -14 38 -28z m-72 -29
c0 -22 -4 -40 -10 -40 -16 0 -23 49 -10 65 18 22 20 19 20 -25z m40 20 c0 -5
-4 -10 -10 -10 -5 0 -10 5 -10 10 0 6 5 10 10 10 6 0 10 -4 10 -10z m10 -72
c0 -4 -9 -8 -21 -8 -15 0 -19 4 -15 16 3 9 6 21 6 27 1 13 30 -22 30 -35z"/>
<path d="M4668 2100 c-36 -19 -78 -67 -78 -89 0 -6 -4 -11 -10 -11 -5 0 -10
25 -10 55 l0 55 -55 0 -55 0 0 -340 0 -340 55 0 55 0 0 198 c0 150 4 211 15
250 30 99 112 159 186 133 49 -17 50 -15 47 47 l-3 57 -55 2 c-39 2 -66 -3
-92 -17z"/>
<path d="M6425 2104 c-42 -22 -64 -43 -86 -84 l-18 -35 -1 63 0 62 -55 0 -55
0 0 -330 c0 -181 0 -333 0 -337 0 -5 25 -9 55 -11 l55 -3 0 203 c0 209 7 258
42 312 42 63 95 83 176 63 l32 -9 0 49 c0 27 -5 54 -12 61 -17 17 -97 15 -133
-4z"/>
<path d="M4850 2097 c0 -7 25 -80 57 -162 31 -83 86 -229 122 -325 l66 -175
59 0 58 0 130 325 c71 179 132 331 135 338 4 9 -11 12 -55 12 -39 0 -62 -4
-65 -12 -2 -7 -46 -128 -97 -268 -50 -140 -94 -262 -98 -270 -4 -12 -6 -10 -9
5 -4 18 -59 180 -147 430 -17 50 -35 96 -39 103 -11 17 -117 17 -117 -1z"/>
</g>
</svg>
